<svg width="70" height="66" fill="none" xmlns="http://www.w3.org/2000/svg"><path d="M66.12 37.64a1.366 1.366 0 00-1.602 1.085C61.8 52.829 49.386 63.065 35 63.065c-14.083 0-26.276-9.81-29.333-23.454l.357.357a1.363 1.363 0 001.933 0c.534-.534.534-1.4 0-1.934l-2.812-2.812a1.367 1.367 0 00-1.933 0L.4 38.034a1.367 1.367 0 101.934 1.934l.506-.507C5.891 54.737 19.38 65.8 35 65.8c15.694 0 29.238-11.17 32.203-26.558a1.367 1.367 0 00-1.084-1.601z" fill="url(#paint0_linear)"/><path d="M69.599 26.032a1.367 1.367 0 00-1.934 0l-.506.507C64.11 11.263 50.62.2 35 .2 19.305.2 5.762 11.37 2.796 26.758a1.367 1.367 0 102.685.518C8.2 13.17 20.613 2.934 35 2.934c14.084 0 26.277 9.81 29.334 23.454l-.357-.357a1.367 1.367 0 00-1.934 1.934l2.812 2.811a1.367 1.367 0 001.933 0l2.812-2.811c.534-.534.534-1.4 0-1.934z" fill="url(#paint1_linear)"/><path d="M35 56.11c12.743 0 23.11-10.367 23.11-23.11C58.11 20.257 47.743 9.89 35 9.89 22.255 9.89 11.888 20.256 11.888 33c0 12.743 10.367 23.11 23.11 23.11zm0-43.486c11.235 0 20.376 9.14 20.376 20.376s-9.14 20.376-20.377 20.376c-11.235 0-20.376-9.14-20.376-20.376S23.763 12.624 35 12.624z" fill="url(#paint2_linear)"/><path d="M36.442 39.027a1.368 1.368 0 001.776-.765l3.784-9.513a1.367 1.367 0 00-2.541-1.01l-3.784 9.512a1.367 1.367 0 00.765 1.776z" fill="url(#paint3_linear)"/><path d="M44.169 29.61h3.139l-3.34 7.596a1.367 1.367 0 002.504 1.1l4.182-9.512a1.367 1.367 0 00-1.252-1.917H44.17a1.367 1.367 0 000 2.734z" fill="url(#paint4_linear)"/><path d="M26.667 35.644a1.37 1.37 0 001.178.672h3.38l-.011 1.429c-.006.755.6 1.372 1.355 1.379h.012c.75 0 1.36-.605 1.367-1.356l.012-1.46a1.368 1.368 0 00.018-2.717c.013-2.226.017-4.466-.01-4.802-.074-.879-.61-1.598-1.369-1.833-.757-.234-1.552.048-2.129.756-.541.664-2.853 4.82-3.822 6.576-.234.424-.226.94.02 1.356zm4.585-3.971l-.009 1.909H30.17c.38-.677.75-1.33 1.082-1.91z" fill="url(#paint5_linear)"/><path d="M25.841 39.195a1.367 1.367 0 00-.017-2.734h-.017c-.749.009-1.535.016-2.246.02.492-.667 1.124-1.54 1.921-2.68.63-.898 1.041-1.753 1.224-2.54.044-.174.082-.42.082-.676a3.804 3.804 0 00-3.802-3.802 3.808 3.808 0 00-3.73 3.066 1.367 1.367 0 002.683.527 1.068 1.068 0 012.112.14l-.024.187c-.081.311-.285.817-.785 1.53a107.689 107.689 0 01-2.882 3.954c-.618.81-.958 1.255-.73 1.995.133.434.475.782.914.928.183.06.329.11 2.196.11.733 0 1.731-.008 3.101-.025z" fill="url(#paint6_linear)"/><defs><linearGradient id="paint0_linear" x1="33.614" y1="34.822" x2="33.614" y2="65.8" gradientUnits="userSpaceOnUse"><stop stop-color="#FC6D2B"/><stop offset="1" stop-color="#F51E4A"/></linearGradient><linearGradient id="paint1_linear" x1="36.386" y1=".2" x2="36.386" y2="31.178" gradientUnits="userSpaceOnUse"><stop stop-color="#FC6D2B"/><stop offset="1" stop-color="#F51E4A"/></linearGradient><linearGradient id="paint2_linear" x1="34.999" y1="9.889" x2="34.999" y2="56.111" gradientUnits="userSpaceOnUse"><stop stop-color="#FC6D2B"/><stop offset="1" stop-color="#F51E4A"/></linearGradient><linearGradient id="paint3_linear" x1="38.84" y1="26.876" x2="38.84" y2="39.124" gradientUnits="userSpaceOnUse"><stop stop-color="#FC6D2B"/><stop offset="1" stop-color="#F51E4A"/></linearGradient><linearGradient id="paint4_linear" x1="46.786" y1="26.877" x2="46.786" y2="39.124" gradientUnits="userSpaceOnUse"><stop stop-color="#FC6D2B"/><stop offset="1" stop-color="#F51E4A"/></linearGradient><linearGradient id="paint5_linear" x1="30.832" y1="26.875" x2="30.832" y2="39.124" gradientUnits="userSpaceOnUse"><stop stop-color="#FC6D2B"/><stop offset="1" stop-color="#F51E4A"/></linearGradient><linearGradient id="paint6_linear" x1="23.211" y1="26.783" x2="23.211" y2="39.219" gradientUnits="userSpaceOnUse"><stop stop-color="#FC6D2B"/><stop offset="1" stop-color="#F51E4A"/></linearGradient></defs></svg>