<svg width="40" height="40" fill="none" xmlns="http://www.w3.org/2000/svg"><g clip-path="url(#clip0)"><path d="M32.95 23.916H15.925a.781.781 0 000 1.563H32.95a.781.781 0 000-1.563z" fill="url(#paint0_linear)"/><path d="M32.95 28.604H15.925a.781.781 0 000 1.562H32.95a.781.781 0 000-1.562z" fill="url(#paint1_linear)"/><path d="M33.733 10a.781.781 0 00-.78-.781H15.92a.781.781 0 00-.781.781v10c0 .431.35.781.78.781h17.032a.78.78 0 00.781-.781V10zm-1.562 9.219H16.702V10.78h15.469v8.438z" fill="url(#paint2_linear)"/><path d="M24.436 6.094a.785.785 0 00.781-.782.782.782 0 00-1.562 0 .787.787 0 00.781.782z" fill="url(#paint3_linear)"/><path d="M37.656 4.53h-9.704a.781.781 0 000 1.563h8.923v27.742H12.331V6.093h8.59a.781.781 0 000-1.562h-8.659A5.392 5.392 0 006.947 0a5.39 5.39 0 00-5.385 5.384v29.232A5.39 5.39 0 006.947 40h26.826a.78.78 0 00.78-.781v-3.822h3.103c.432 0 .782-.35.782-.781V5.312a.781.781 0 00-.782-.781zm-34.531.854a3.826 3.826 0 013.822-3.822 3.826 3.826 0 013.821 3.822v25.444a5.367 5.367 0 00-3.821-1.596 5.367 5.367 0 00-3.822 1.596V5.384zm29.866 33.053H6.947a3.826 3.826 0 01-3.822-3.821 3.826 3.826 0 013.822-3.822 3.826 3.826 0 013.821 3.822c0 .431.35.781.781.781h21.442v3.04z" fill="url(#paint4_linear)"/></g><defs><linearGradient id="paint0_linear" x1="24.437" y1="23.916" x2="24.437" y2="25.479" gradientUnits="userSpaceOnUse"><stop stop-color="#FC6D2B"/><stop offset="1" stop-color="#F51E4A"/></linearGradient><linearGradient id="paint1_linear" x1="24.437" y1="28.604" x2="24.437" y2="30.166" gradientUnits="userSpaceOnUse"><stop stop-color="#FC6D2B"/><stop offset="1" stop-color="#F51E4A"/></linearGradient><linearGradient id="paint2_linear" x1="24.436" y1="9.219" x2="24.436" y2="20.781" gradientUnits="userSpaceOnUse"><stop stop-color="#FC6D2B"/><stop offset="1" stop-color="#F51E4A"/></linearGradient><linearGradient id="paint3_linear" x1="24.436" y1="4.531" x2="24.436" y2="6.094" gradientUnits="userSpaceOnUse"><stop stop-color="#FC6D2B"/><stop offset="1" stop-color="#F51E4A"/></linearGradient><linearGradient id="paint4_linear" x1="20" y1="0" x2="20" y2="40" gradientUnits="userSpaceOnUse"><stop stop-color="#FC6D2B"/><stop offset="1" stop-color="#F51E4A"/></linearGradient><clipPath id="clip0"><path fill="#fff" d="M0 0h40v40H0z"/></clipPath></defs></svg>