<svg width="70" height="70" fill="none" xmlns="http://www.w3.org/2000/svg"><path d="M28.438 30.625a1.095 1.095 0 01-1.094-1.094h-2.188a3.285 3.285 0 003.282 3.282 3.285 3.285 0 003.28-3.282h-2.187c0 .603-.49 1.094-1.093 1.094z" fill="url(#paint0_linear)"/><path d="M46.438 54.024l-5.19-1.557a15.777 15.777 0 01-9.014-7.005 7.943 7.943 0 001.14-3.443l.4-4.4c.04-.434.33-.801.743-.939l2.885-.961-.974-3.9a11.12 11.12 0 01-.334-2.714c0-3.157-.782-6.259-2.257-9.04 2.62-1.218 4.444-3.867 4.444-6.94 0-4.222-3.434-7.656-7.656-7.656h-8.75c-1.78 0-3.348.867-4.346 2.187h-1.123c-8.443 0-15.312 6.869-15.312 15.313v12.436a26.73 26.73 0 008.257 19.302 5.496 5.496 0 01-1.357 1.214 14.488 14.488 0 00-6.677 10.26l-.39 2.725h67.98V66.72H58.814a18.303 18.303 0 00-12.377-12.695zm-5.818.539l5.189 1.556a16.118 16.118 0 0110.73 10.6H53.36c-1-4.028-3.982-7.219-8.013-8.429l-7.524-2.256c-3.957-1.187-7.339-3.835-9.475-7.345a7.873 7.873 0 002.405-1.464 17.943 17.943 0 009.866 7.338zm1.475 7.6l-4.477-1.918-.861 2.01 4.476 1.919a6.606 6.606 0 012.975 2.545h-8.425c-1.603-4.859-4.9-8.887-9.4-11.386l-2.32-1.289v-4.946a7.903 7.903 0 002.056.091c2.383 4.282 6.368 7.527 11.077 8.94l7.524 2.257a9.517 9.517 0 016.398 6.333H46.68a8.806 8.806 0 00-4.586-4.556zm-8.189-33.058c0 1.098.134 2.19.397 3.244l.484 1.934-.963.32a3.28 3.28 0 00-2.23 2.816l-.278 3.05H29.79a2.848 2.848 0 01-2.561-1.583l-1.957.979a5.023 5.023 0 004.518 2.792h1.248c-.613 2.542-2.867 4.375-5.628 4.375-.755 0-1.487-.14-2.177-.416L19 44.922l-.813 2.032 3.688 1.474v6.903l3.445 1.914c1.314.73 2.5 1.62 3.573 2.62a12.103 12.103 0 01-11.227-3.278 14.857 14.857 0 00-3.86-2.783l-1.298-.649c.211-.845.298-1.73.207-2.635l-.2-1.998a10.877 10.877 0 012.343-7.92l2.29-2.863-3.722-1.24a5.226 5.226 0 01-3.582-4.967 2.002 2.002 0 013.415-1.415l2.913 2.914.732-7.325a5.452 5.452 0 015.441-4.925h8.28c.362 0 .715-.034 1.063-.083a17.108 17.108 0 012.218 8.407zm-30.625 6.3V22.969c0-7.238 5.888-13.125 13.125-13.125h.11a5.475 5.475 0 005.358 6.562h1.095V14.22h-1.094a3.285 3.285 0 01-3.281-3.281 3.285 3.285 0 013.281-3.282h8.75a5.475 5.475 0 015.469 5.469 5.475 5.475 0 01-5.469 5.469h-8.28a7.633 7.633 0 00-7.617 6.894l-.276 2.765a4.192 4.192 0 00-6.795 3.279c0 3.2 2.04 6.03 5.076 7.042l.746.249-.33.412a13.048 13.048 0 00-2.81 9.505l.2 1.998a5.493 5.493 0 01-.157 1.916 24.536 24.536 0 01-7.1-17.25zm8.392 19.78l1.153.575c1.221.61 2.328 1.41 3.293 2.373a14.276 14.276 0 0010.164 4.21c1.468 0 2.917-.23 4.316-.67a18.012 18.012 0 012.878 5.046H16.225a13.07 13.07 0 00-7.071-8.944 7.641 7.641 0 002.519-2.59zM3.482 66.49a12.297 12.297 0 013.683-7.157 10.841 10.841 0 016.794 7.387H3.449l.033-.23z" fill="url(#paint1_linear)"/><path d="M57.969 40.469h-17.5v2.187h17.5c4.824 0 8.75 3.926 8.75 8.75a4.38 4.38 0 01-4.375 4.375 4.38 4.38 0 01-4.375-4.375 2.19 2.19 0 012.187-2.187 2.19 2.19 0 012.188 2.187h2.187a4.38 4.38 0 00-4.375-4.375 4.38 4.38 0 00-4.375 4.375 6.57 6.57 0 006.563 6.563 6.57 6.57 0 006.562-6.563c0-6.03-4.906-10.937-10.937-10.937z" fill="url(#paint2_linear)"/><path d="M56.875 36.094H42.656v2.187h14.219A3.285 3.285 0 0060.156 35a3.285 3.285 0 00-3.281-3.281h-1.094v2.187h1.094c.603 0 1.094.491 1.094 1.094 0 .603-.491 1.094-1.094 1.094z" fill="url(#paint3_linear)"/><path d="M38.281 44.844h2.188v2.187H38.28v-2.187z" fill="url(#paint4_linear)"/><path d="M42.656 44.844h2.188v2.187h-2.188v-2.187z" fill="url(#paint5_linear)"/><path d="M47.031 44.844h2.188v2.187H47.03v-2.187z" fill="url(#paint6_linear)"/><path d="M41.299 24.775l5.375-6.27 4.306-.81a9.838 9.838 0 008.083-9.685V.489l-8.45 3.84c-3.504 1.594-5.77 5.111-5.77 9.002l.142 3.78-5.346 6.238 1.66 1.426zM51.519 6.32l5.356-2.434v4.125a7.653 7.653 0 01-6.292 7.534l-3.442.646-.11-2.9A7.675 7.675 0 0151.52 6.32z" fill="url(#paint7_linear)"/><path d="M62.94 14.31a6.554 6.554 0 00-4.97 6.366v1.84l-2.962 2.96 1.547 1.547 3.015-3.015 3.588-.449a6.573 6.573 0 005.749-6.512v-4.23l-5.968 1.492zm3.78 2.737a4.381 4.381 0 01-3.833 4.341l-2.73.341v-1.053a4.369 4.369 0 013.314-4.243l3.248-.813v1.427z" fill="url(#paint8_linear)"/><path d="M65.625 30.625h-3.281v3.281a3.285 3.285 0 003.281 3.282h3.281v-3.282a3.285 3.285 0 00-3.281-3.281zM66.719 35h-1.094a1.096 1.096 0 01-1.094-1.094v-1.093h1.094c.603 0 1.094.49 1.094 1.093V35z" fill="url(#paint9_linear)"/><defs><linearGradient id="paint0_linear" x1="28.438" y1="29.531" x2="28.438" y2="32.813" gradientUnits="userSpaceOnUse"><stop stop-color="#FC6D2B"/><stop offset="1" stop-color="#F51E4A"/></linearGradient><linearGradient id="paint1_linear" x1="34.916" y1="5.469" x2="34.916" y2="68.906" gradientUnits="userSpaceOnUse"><stop stop-color="#FC6D2B"/><stop offset="1" stop-color="#F51E4A"/></linearGradient><linearGradient id="paint2_linear" x1="54.688" y1="40.469" x2="54.688" y2="57.969" gradientUnits="userSpaceOnUse"><stop stop-color="#FC6D2B"/><stop offset="1" stop-color="#F51E4A"/></linearGradient><linearGradient id="paint3_linear" x1="51.406" y1="31.719" x2="51.406" y2="38.281" gradientUnits="userSpaceOnUse"><stop stop-color="#FC6D2B"/><stop offset="1" stop-color="#F51E4A"/></linearGradient><linearGradient id="paint4_linear" x1="39.375" y1="44.844" x2="39.375" y2="47.031" gradientUnits="userSpaceOnUse"><stop stop-color="#FC6D2B"/><stop offset="1" stop-color="#F51E4A"/></linearGradient><linearGradient id="paint5_linear" x1="43.75" y1="44.844" x2="43.75" y2="47.031" gradientUnits="userSpaceOnUse"><stop stop-color="#FC6D2B"/><stop offset="1" stop-color="#F51E4A"/></linearGradient><linearGradient id="paint6_linear" x1="48.125" y1="44.844" x2="48.125" y2="47.031" gradientUnits="userSpaceOnUse"><stop stop-color="#FC6D2B"/><stop offset="1" stop-color="#F51E4A"/></linearGradient><linearGradient id="paint7_linear" x1="49.351" y1=".489" x2="49.351" y2="24.775" gradientUnits="userSpaceOnUse"><stop stop-color="#FC6D2B"/><stop offset="1" stop-color="#F51E4A"/></linearGradient><linearGradient id="paint8_linear" x1="61.957" y1="12.818" x2="61.957" y2="27.023" gradientUnits="userSpaceOnUse"><stop stop-color="#FC6D2B"/><stop offset="1" stop-color="#F51E4A"/></linearGradient><linearGradient id="paint9_linear" x1="65.625" y1="30.625" x2="65.625" y2="37.188" gradientUnits="userSpaceOnUse"><stop stop-color="#FC6D2B"/><stop offset="1" stop-color="#F51E4A"/></linearGradient></defs></svg>