<svg width="60" height="60" fill="none" xmlns="http://www.w3.org/2000/svg"><g clip-path="url(#clip0)"><path d="M43.428 35.574l.613-2.551a1.762 1.762 0 00-.332-1.511 1.762 1.762 0 00-1.391-.675H30.832v-1.234c3.287-.437 5.832-3.257 5.832-6.661 0-2.743-3.416-7.606-5.452-10.26a1.59 1.59 0 00-1.27-.628c-.502 0-.965.229-1.27.627-2.037 2.655-5.452 7.518-5.452 10.26 0 3.412 2.554 6.236 5.85 6.665v1.231H17.598a1.76 1.76 0 00-1.406.694 1.76 1.76 0 00-.305 1.538l.676 2.517c-2.48 2.418-3.837 5.444-3.837 8.575 0 1.317.238 2.621.707 3.876a.88.88 0 101.65-.617 9.275 9.275 0 01-.596-3.26c0-2.691 1.208-5.312 3.41-7.413H30.6a.88.88 0 100-1.762H18.224l-.638-2.377.012-.01h24.724l.006.013-.57 2.374H34.26a.88.88 0 000 1.761h7.845c2.202 2.101 3.41 4.722 3.41 7.415 0 6.545-6.96 11.87-15.515 11.87-5.388 0-10.314-2.098-13.176-5.613a.88.88 0 00-1.366 1.113c3.194 3.921 8.63 6.262 14.542 6.262 4.575 0 8.884-1.392 12.134-3.92 3.316-2.58 5.142-6.029 5.142-9.712 0-3.136-1.362-6.167-3.848-8.587zM30.832 27.72v-.762a.88.88 0 10-1.761 0v.77a2.265 2.265 0 01-1.391-2.086c0-.677.893-2.316 2.262-4.175 1.368 1.859 2.261 3.498 2.261 4.175 0 .93-.565 1.732-1.371 2.078zm-5.85-4.777c0-1.554 1.896-5.002 4.96-9.023 3.063 4.021 4.96 7.469 4.96 9.023 0 1.085-.35 2.09-.944 2.907.003-.07.007-.139.007-.208 0-1.516-1.64-3.974-3.017-5.768a1.26 1.26 0 00-1.006-.497 1.26 1.26 0 00-1.006.497c-1.377 1.794-3.017 4.252-3.017 5.767 0 .07.002.138.005.206a4.93 4.93 0 01-.943-2.904z" fill="url(#paint0_linear)"/><path d="M56.152 25.727l.613-2.552a1.762 1.762 0 00-.332-1.51 1.762 1.762 0 00-1.392-.676h-1.23a.88.88 0 100 1.762h1.235l.006.013-.57 2.373h-7.498a.88.88 0 100 1.762h7.845c2.202 2.1 3.41 4.722 3.41 7.414 0 2.241-.825 4.426-2.386 6.317-1.55 1.878-3.742 3.385-6.342 4.357a.88.88 0 10.617 1.65c2.889-1.08 5.338-2.77 7.084-4.886C59.036 39.541 60 36.968 60 34.313c0-3.136-1.362-6.166-3.848-8.587z" fill="url(#paint1_linear)"/><path d="M38.785 25.137a.88.88 0 100 1.762h4.54a.88.88 0 100-1.762h-4.54z" fill="url(#paint2_linear)"/><path d="M41.794 19.758v1.231H39.23a.88.88 0 000 1.762h10.828a.88.88 0 100-1.762h-6.501v-1.233c3.287-.438 5.831-3.257 5.831-6.662 0-2.743-3.415-7.606-5.451-10.26a1.59 1.59 0 00-1.27-.627 1.59 1.59 0 00-1.271.627c-2.036 2.654-5.452 7.518-5.452 10.26 0 3.411 2.555 6.235 5.851 6.664zm1.762-1.886v-.763a.88.88 0 10-1.762 0v.77a2.265 2.265 0 01-1.39-2.086c0-.677.893-2.315 2.261-4.175 1.369 1.86 2.262 3.498 2.262 4.175 0 .931-.566 1.732-1.371 2.079zm-.89-13.8c3.063 4.02 4.96 7.468 4.96 9.022 0 1.085-.35 2.089-.944 2.906a3.55 3.55 0 00.006-.207c0-1.516-1.64-3.973-3.016-5.768a1.26 1.26 0 00-1.007-.496c-.398 0-.764.181-1.006.496-1.376 1.795-3.017 4.252-3.017 5.768 0 .07.003.138.006.206a4.933 4.933 0 01-.943-2.905c0-1.554 1.897-5 4.96-9.022z" fill="url(#paint3_linear)"/><path d="M10.49 44.987c-2.6-.972-4.793-2.479-6.343-4.357-1.56-1.891-2.386-4.076-2.386-6.317 0-2.692 1.209-5.313 3.41-7.414h7.845a.88.88 0 000-1.762H5.52l-.571-2.377.01-.01h15.707a.88.88 0 100-1.76h-2.46v-1.232c3.297-.429 5.852-3.253 5.852-6.664 0-2.742-3.416-7.606-5.452-10.26a1.59 1.59 0 00-1.27-.627 1.59 1.59 0 00-1.27.626 60.996 60.996 0 00-2.13 2.953.88.88 0 001.462.985 58.74 58.74 0 011.938-2.699c3.063 4.021 4.96 7.468 4.96 9.022a4.93 4.93 0 01-.943 2.905c.004-.068.006-.137.006-.206 0-1.516-1.64-3.973-3.017-5.768a1.26 1.26 0 00-1.006-.496 1.26 1.26 0 00-1.007.496c-1.376 1.795-3.016 4.252-3.016 5.768 0 .07.004.14.008.21a4.932 4.932 0 01-.946-2.909c0-.486.195-1.436 1.122-3.196a.88.88 0 10-1.559-.821c-.891 1.693-1.325 3.007-1.325 4.017 0 3.405 2.545 6.224 5.832 6.662v1.233H4.96c-.546 0-1.054.246-1.392.675-.338.43-.459.98-.331 1.511l.612 2.552C1.362 28.147 0 31.177 0 34.313c0 2.655.964 5.227 2.788 7.438 1.746 2.117 4.196 3.806 7.085 4.886a.877.877 0 001.133-.517.88.88 0 00-.517-1.133zm6.844-33.369c1.369 1.86 2.262 3.498 2.262 4.175 0 .939-.575 1.745-1.39 2.087v-.77a.88.88 0 10-1.762 0v.762a2.265 2.265 0 01-1.371-2.079c0-.677.893-2.315 2.261-4.175z" fill="url(#paint4_linear)"/><path d="M16.676 25.137a.88.88 0 100 1.762h4.423a.88.88 0 100-1.762h-4.423z" fill="url(#paint5_linear)"/></g><defs><linearGradient id="paint0_linear" x1="30" y1="12.054" x2="30" y2="57.793" gradientUnits="userSpaceOnUse"><stop stop-color="#FC6D2B"/><stop offset="1" stop-color="#F51E4A"/></linearGradient><linearGradient id="paint1_linear" x1="53.052" y1="20.989" x2="53.052" y2="46.693" gradientUnits="userSpaceOnUse"><stop stop-color="#FC6D2B"/><stop offset="1" stop-color="#F51E4A"/></linearGradient><linearGradient id="paint2_linear" x1="41.055" y1="25.137" x2="41.055" y2="26.899" gradientUnits="userSpaceOnUse"><stop stop-color="#FC6D2B"/><stop offset="1" stop-color="#F51E4A"/></linearGradient><linearGradient id="paint3_linear" x1="43.441" y1="2.207" x2="43.441" y2="22.751" gradientUnits="userSpaceOnUse"><stop stop-color="#FC6D2B"/><stop offset="1" stop-color="#F51E4A"/></linearGradient><linearGradient id="paint4_linear" x1="12.028" y1="2.207" x2="12.028" y2="46.693" gradientUnits="userSpaceOnUse"><stop stop-color="#FC6D2B"/><stop offset="1" stop-color="#F51E4A"/></linearGradient><linearGradient id="paint5_linear" x1="18.887" y1="25.137" x2="18.887" y2="26.899" gradientUnits="userSpaceOnUse"><stop stop-color="#FC6D2B"/><stop offset="1" stop-color="#F51E4A"/></linearGradient><clipPath id="clip0"><path fill="#fff" d="M0 0h60v60H0z"/></clipPath></defs></svg>