<svg width="70" height="64" fill="none" xmlns="http://www.w3.org/2000/svg"><path d="M55.508 3.566C54.39 1.925 52.463.144 49.355.144c-4.388 0-7.52 3.539-7.52 7.789 0 4.727 3.827 7.832 9.619 12.532 1.015.823 2.064 1.675 3.179 2.604a1.364 1.364 0 001.75 0c1.115-.929 2.164-1.78 3.179-2.604 5.792-4.7 9.618-7.805 9.618-12.532 0-4.252-3.134-7.79-7.52-7.79-3.108 0-5.035 1.782-6.152 3.423zm6.152-.688c2.728 0 4.785 2.173 4.785 5.055 0 3.425-3.423 6.203-8.606 10.409-.753.61-1.525 1.238-2.331 1.901-.806-.663-1.578-1.29-2.331-1.901-5.183-4.206-8.607-6.984-8.607-10.41 0-2.88 2.057-5.054 4.785-5.054 3.57 0 4.79 3.974 4.84 4.138a1.367 1.367 0 002.627 0c.011-.041 1.233-4.138 4.838-4.138z" fill="url(#paint0_linear)"/><path d="M35 20.656c-.842-1.063-2.15-2.055-4.102-2.055-3.066 0-5.468 2.575-5.468 5.862 0 3.483 2.747 5.825 6.55 9.066.677.577 1.377 1.173 2.12 1.823a1.364 1.364 0 001.8 0c.743-.65 1.443-1.246 2.12-1.823 3.803-3.241 6.55-5.583 6.55-9.066 0-3.287-2.402-5.862-5.468-5.862-1.952 0-3.26.992-4.102 2.055zm6.836 3.807c0 2.221-2.104 4.014-5.59 6.985-.405.345-.819.698-1.246 1.065-.427-.367-.84-.72-1.246-1.065-3.486-2.97-5.59-4.764-5.59-6.985 0-1.516.958-3.128 2.734-3.128 2.021 0 2.755 2.485 2.784 2.583a1.37 1.37 0 001.317 1.01c.616 0 1.155-.409 1.318-1.003.03-.105.764-2.59 2.785-2.59 1.776 0 2.734 1.612 2.734 3.128z" fill="url(#paint1_linear)"/><path d="M59.2 53.19a1.367 1.367 0 100-2.734 1.367 1.367 0 000 2.735z" fill="url(#paint2_linear)"/><path d="M1.367 58.25h4.438c2.162 0 4.956.95 8.19 2.05 4.57 1.553 10.257 3.487 16.752 3.554 7.014.072 13.316-2.03 19.287-5.71 1.44-.887 2.875-1.735 4.266-2.52a1.367 1.367 0 00-1.344-2.382 131.935 131.935 0 00-4.356 2.574c-5.893 3.632-11.718 5.368-17.824 5.304-6.058-.063-11.287-1.841-15.9-3.41-3.465-1.178-6.457-2.195-9.071-2.195h-3.07v-9.57H4.23c5.593 0 9.465-2.164 12.578-3.903 2.16-1.207 4.027-2.25 5.887-2.25 2.02 0 3.162.74 4.607 1.676 1.705 1.104 3.636 2.355 7.17 2.552 9.028.502 10.983 2.212 10.983 2.608 0 .353-.812.724-.931.813-1.798.906-6.351 1.921-17.727 1.921a1.367 1.367 0 000 2.735c15.676 0 17.766-1.835 19.832-2.57 2.273-.81 5.102-1.818 7.132-3.044 3.206-1.94 6.536-1.662 8.765-1.088 1.564.403 2.853 1.019 3.733 1.568-.724.28-1.327.512-2.082.817a1.367 1.367 0 101.024 2.535c.703-.284 1.3-.514 1.826-.718 1.92-.742 2.638-1.02 2.906-1.89a1.514 1.514 0 00-.208-1.315c-1.6-2.311-10.062-6.675-17.378-2.25-1.159.7-2.69 1.347-4.21 1.925-.519-2.736-4.954-4.301-13.513-4.777-2.809-.157-4.279-1.109-5.835-2.117-1.606-1.04-3.266-2.115-6.094-2.115-2.572 0-4.83 1.261-7.22 2.597C12.491 41.321 9.11 43.21 4.23 43.21H1.367C.612 43.21 0 43.822 0 44.577v12.305c0 .755.612 1.367 1.367 1.367z" fill="url(#paint3_linear)"/><defs><linearGradient id="paint0_linear" x1="55.508" y1=".144" x2="55.508" y2="23.386" gradientUnits="userSpaceOnUse"><stop stop-color="#FC6D2B"/><stop offset="1" stop-color="#F51E4A"/></linearGradient><linearGradient id="paint1_linear" x1="35" y1="18.601" x2="35" y2="35.691" gradientUnits="userSpaceOnUse"><stop stop-color="#FC6D2B"/><stop offset="1" stop-color="#F51E4A"/></linearGradient><linearGradient id="paint2_linear" x1="59.199" y1="50.456" x2="59.199" y2="53.191" gradientUnits="userSpaceOnUse"><stop stop-color="#FC6D2B"/><stop offset="1" stop-color="#F51E4A"/></linearGradient><linearGradient id="paint3_linear" x1="35" y1="37.058" x2="35" y2="63.856" gradientUnits="userSpaceOnUse"><stop stop-color="#FC6D2B"/><stop offset="1" stop-color="#F51E4A"/></linearGradient></defs></svg>