<svg width="70" height="70" fill="none" xmlns="http://www.w3.org/2000/svg"><g clip-path="url(#clip0)"><path d="M27.146 6.76a1.146 1.146 0 100-2.293 1.146 1.146 0 000 2.292z" fill="url(#paint0_linear)"/><path d="M20.283 12.564h13.723a1.026 1.026 0 000-2.051H20.283a1.025 1.025 0 100 2.051z" fill="url(#paint1_linear)"/><path d="M39.678 51.06v1.966a1.026 1.026 0 102.05 0V51.06a1.025 1.025 0 10-2.05 0z" fill="url(#paint2_linear)"/><path d="M60.127 51.06v1.966a1.025 1.025 0 102.051 0V51.06a1.025 1.025 0 10-2.051 0z" fill="url(#paint3_linear)"/><path d="M52.851 52.294a2.548 2.548 0 01-3.845 0 1.026 1.026 0 00-1.547 1.347 4.6 4.6 0 006.938 0 1.026 1.026 0 00-1.546-1.347z" fill="url(#paint4_linear)"/><path d="M15.974 29.368l5.754-2.951a1.026 1.026 0 00-.936-1.825l-4.26 2.185v-1.273a1.025 1.025 0 10-2.052 0v2.951c0 .772.819 1.259 1.494.913z" fill="url(#paint5_linear)"/><path d="M26.627 28.005h9.055a1.025 1.025 0 100-2.05h-9.055a1.025 1.025 0 100 2.05z" fill="url(#paint6_linear)"/><path d="M15.974 38.746l5.754-2.95a1.026 1.026 0 00-.936-1.826l-4.26 2.185v-1.272a1.025 1.025 0 10-2.052 0v2.95c0 .768.815 1.261 1.494.913z" fill="url(#paint7_linear)"/><path d="M26.627 37.384h9.055a1.026 1.026 0 000-2.051h-9.055a1.025 1.025 0 100 2.05z" fill="url(#paint8_linear)"/><path d="M15.506 48.237c.443 0 .14.011 6.222-3.063a1.025 1.025 0 10-.936-1.825l-4.26 2.184v-1.272a1.026 1.026 0 00-2.052 0v2.95c0 .566.46 1.026 1.026 1.026z" fill="url(#paint9_linear)"/><path d="M9.343 67.987H40.81c3.104 1.903 6.936 2.091 10.117.502 3.546 1.77 7.87 1.322 11.083-1.167 1.937-1.5 3.566-3.243 4.843-5.18a1.025 1.025 0 10-1.712-1.129c-1.153 1.748-2.629 3.325-4.387 4.688-2.598 2.013-6.193 2.44-9.196.804a1.311 1.311 0 00-1.26 0 9.179 9.179 0 01-.118.063c-4.49 2.375-8.53-.47-8.513-.465a11.86 11.86 0 01-1.142-.866c-12.81-10.665-5.756-30.615 10.003-23.959.588.248.746-.07 2.458-.614 11.369-3.613 17.607 7.15 13.913 16.918a1.026 1.026 0 101.919.726c3.081-8.15-.018-17.323-7.479-19.782 1.078-2.335 1.15-4.959.138-7.107a1.026 1.026 0 00-.491-.492c-2.072-.975-4.493-.95-6.697-.047V16.94c0-5.152-4.191-9.343-9.343-9.343H42.22a4.41 4.41 0 00-4.105-2.813H32.64A5.653 5.653 0 0027.145.439a5.653 5.653 0 00-5.495 4.345h-5.474a4.41 4.41 0 00-4.105 2.813H9.343C4.19 7.597 0 11.787 0 16.939v41.705c0 5.151 4.191 9.343 9.343 9.343zm42.26-29.02c-.142.052-.457.17-.675.257-2.68-1.073-5.551-1.625-8.371-1.198-.873-1.649-1.145-3.645-.47-5.39 4.068-1.57 8.992 1.878 9.517 6.332zm8.165-6.33c.638 1.65.46 3.64-.473 5.399-1.803-.27-3.714-.16-5.704.328a9.652 9.652 0 00-1.376-3.58c2.168-2.353 5.263-3.032 7.553-2.148zm-7.53-15.698v15.087a10.61 10.61 0 00-1.31 1.134 10.035 10.035 0 00-3.435-2.309v-13.31a3.063 3.063 0 00-3.06-3.06h-1.982a4.4 4.4 0 00.066-.754v-4.08h2.43c4.02 0 7.291 3.272 7.291 7.292zM16.175 6.835h6.358c.543 0 .991-.423 1.023-.965a3.597 3.597 0 013.589-3.38c1.9 0 3.476 1.485 3.588 3.38.032.542.48.965 1.023.965h6.358c1.3 0 2.352 1.063 2.352 2.352-.016 4.706.145 5.049-.41 5.864a2.378 2.378 0 01-1.942 1.028c-23.32-.004-22.048.027-22.41-.047a2.358 2.358 0 01-1.88-2.305c.004-4.942-.015-4.569.022-4.85a2.354 2.354 0 012.33-2.042zM2.051 16.939c0-4.02 3.271-7.291 7.292-7.291h2.429v4.079c0 .257.023.508.066.754H9.856a3.063 3.063 0 00-3.06 3.06v12.318a1.025 1.025 0 102.051 0V17.54a1.01 1.01 0 011.009-1.008h2.925a4.385 4.385 0 003.394 1.598c23.755-.002 22.232.061 23.043-.14a4.366 4.366 0 002.29-1.458h2.925a1.01 1.01 0 011.009 1.008v12.754c-1.562-.232-3.035-.02-4.294.509-.32.135-.598.25-.77.615-.958 2.036-.996 4.634.133 7.101-3.176 1.07-5.56 3.317-7.016 6.192h-6.867a1.025 1.025 0 100 2.05h6.02c-.017.052-.113.358-.16.52-1.145 3.905-.71 8.114.845 11.77H9.856a1.01 1.01 0 01-1.009-1.008V33.962a1.025 1.025 0 10-2.05 0v24.081a3.063 3.063 0 003.059 3.06h24.499a20.754 20.754 0 003.86 4.833H9.343c-4.021 0-7.292-3.272-7.292-7.292V16.939z" fill="url(#paint10_linear)"/></g><defs><linearGradient id="paint0_linear" x1="27.146" y1="4.468" x2="27.146" y2="6.759" gradientUnits="userSpaceOnUse"><stop stop-color="#FC6D2B"/><stop offset="1" stop-color="#F51E4A"/></linearGradient><linearGradient id="paint1_linear" x1="27.145" y1="10.513" x2="27.145" y2="12.564" gradientUnits="userSpaceOnUse"><stop stop-color="#FC6D2B"/><stop offset="1" stop-color="#F51E4A"/></linearGradient><linearGradient id="paint2_linear" x1="40.703" y1="50.035" x2="40.703" y2="54.051" gradientUnits="userSpaceOnUse"><stop stop-color="#FC6D2B"/><stop offset="1" stop-color="#F51E4A"/></linearGradient><linearGradient id="paint3_linear" x1="61.153" y1="50.035" x2="61.153" y2="54.051" gradientUnits="userSpaceOnUse"><stop stop-color="#FC6D2B"/><stop offset="1" stop-color="#F51E4A"/></linearGradient><linearGradient id="paint4_linear" x1="50.928" y1="51.942" x2="50.928" y2="55.22" gradientUnits="userSpaceOnUse"><stop stop-color="#FC6D2B"/><stop offset="1" stop-color="#F51E4A"/></linearGradient><linearGradient id="paint5_linear" x1="18.383" y1="24.479" x2="18.383" y2="29.481" gradientUnits="userSpaceOnUse"><stop stop-color="#FC6D2B"/><stop offset="1" stop-color="#F51E4A"/></linearGradient><linearGradient id="paint6_linear" x1="31.154" y1="25.954" x2="31.154" y2="28.005" gradientUnits="userSpaceOnUse"><stop stop-color="#FC6D2B"/><stop offset="1" stop-color="#F51E4A"/></linearGradient><linearGradient id="paint7_linear" x1="18.383" y1="33.857" x2="18.383" y2="38.86" gradientUnits="userSpaceOnUse"><stop stop-color="#FC6D2B"/><stop offset="1" stop-color="#F51E4A"/></linearGradient><linearGradient id="paint8_linear" x1="31.154" y1="35.333" x2="31.154" y2="37.384" gradientUnits="userSpaceOnUse"><stop stop-color="#FC6D2B"/><stop offset="1" stop-color="#F51E4A"/></linearGradient><linearGradient id="paint9_linear" x1="18.383" y1="43.235" x2="18.383" y2="48.237" gradientUnits="userSpaceOnUse"><stop stop-color="#FC6D2B"/><stop offset="1" stop-color="#F51E4A"/></linearGradient><linearGradient id="paint10_linear" x1="35" y1=".439" x2="35" y2="69.56" gradientUnits="userSpaceOnUse"><stop stop-color="#FC6D2B"/><stop offset="1" stop-color="#F51E4A"/></linearGradient><clipPath id="clip0"><path fill="#fff" d="M0 0h70v70H0z"/></clipPath></defs></svg>