<svg width="70" height="70" fill="none" xmlns="http://www.w3.org/2000/svg"><g clip-path="url(#clip0)"><path d="M67.132 15.307H63.85V12.58a3.927 3.927 0 00-3.923-3.923h-3.13a3.927 3.927 0 00-3.922 3.923v11.23H47.63v-3.016a3.973 3.973 0 00-3.969-3.969c-.86 0-1.655.276-2.306.743a3.974 3.974 0 00-3.582-2.262 3.972 3.972 0 00-3.471 2.046 3.947 3.947 0 00-2.418-.825c-1.38 0-2.597.71-3.308 1.782a3.95 3.95 0 00-2.58-.957 3.973 3.973 0 00-3.97 3.969v2.49h-4.898v-2.893a1.025 1.025 0 10-2.05 0v23.804c0 1.034-.84 1.874-1.873 1.874h-3.13A1.876 1.876 0 018.2 44.723V12.58c0-1.034.841-1.874 1.874-1.874h3.13c1.033 0 1.873.84 1.873 1.874v3.972a1.025 1.025 0 102.05 0V12.58a3.927 3.927 0 00-3.923-3.923h-3.13a3.927 3.927 0 00-3.923 3.923v2.728H2.868A2.87 2.87 0 000 18.175v20.952a2.87 2.87 0 002.868 2.868H6.15v2.728a3.927 3.927 0 003.923 3.923h3.13a3.927 3.927 0 003.922-3.923V33.491h3.512v1.87c0 .963.336 1.901.947 2.644l3.183 3.869v18.445a1.025 1.025 0 102.05 0V41.507c0-.238-.083-.468-.234-.651l-3.416-4.153a2.116 2.116 0 01-.48-1.341V33.49l19.378.118a1.025 1.025 0 100-2.05h-4.662a1.746 1.746 0 01-1.745-1.743c0-.962.783-1.745 1.745-1.745h8.81c.606 0 1.098.492 1.098 1.098v6.193c0 .488-.17.964-.48 1.34l-3.416 4.154a1.021 1.021 0 00-.233.65v2.703a1.025 1.025 0 102.049 0v-2.335l3.182-3.87c.611-.742.948-1.68.948-2.642V33.49h3.511v11.232a3.927 3.927 0 003.923 3.923h3.13a3.927 3.927 0 003.922-3.923v-2.728h3.284A2.87 2.87 0 0070 39.127V18.175a2.87 2.87 0 00-2.868-2.868zM2.868 39.945a.82.82 0 01-.819-.818V18.175c0-.452.367-.818.819-.818H6.15v22.588H2.868zm40.792-21.07c1.059 0 1.92.862 1.92 1.92v3.815c0 .541-.23 1.05-.622 1.412h-2.595a1.918 1.918 0 01-.623-1.412v-3.815c0-1.058.862-1.92 1.92-1.92zm-7.808.401c0-1.058.861-1.92 1.92-1.92 1.058 0 1.92.862 1.92 1.92v5.334c0 .541-.23 1.05-.623 1.412h-1.665a3.79 3.79 0 00-.824.091 1.91 1.91 0 01-.728-1.503v-5.334zm-5.889 1.22c0-1.058.861-1.919 1.92-1.919 1.058 0 1.92.861 1.92 1.92v4.113c0 1.059-.862 1.92-1.92 1.92a1.922 1.922 0 01-1.92-1.92v-4.113zm-5.889.826c0-1.058.862-1.92 1.92-1.92 1.058 0 1.92.861 1.92 1.92v3.288c0 1.059-.862 1.92-1.92 1.92a1.922 1.922 0 01-1.92-1.92v-3.288zm-6.947 4.538h5.1a3.975 3.975 0 003.767 2.72 3.96 3.96 0 002.945-1.312 3.959 3.959 0 002.944 1.311c.845 0 1.628-.268 2.272-.72a3.771 3.771 0 00-.545 1.957c0 .581.132 1.132.367 1.625h-16.85v-5.58zm32.235 5.581V29.17a3.153 3.153 0 00-2.071-2.957 3.96 3.96 0 00.135-.352h5.448v5.581h-3.512zm18.589 7.686a.819.819 0 01-.819.818H63.85v-2.961a1.025 1.025 0 10-2.05 0v7.74c0 1.032-.84 1.873-1.873 1.873h-3.13a1.876 1.876 0 01-1.873-1.874V12.58c0-1.034.84-1.874 1.873-1.874h3.13c1.033 0 1.873.84 1.873 1.874v20.038a1.025 1.025 0 102.05 0v-15.26h3.283a.82.82 0 01.819.818v20.952z" fill="url(#paint0_linear)"/><path d="M44.206 47.551c-.566 0-1.024.46-1.024 1.025V60.32a1.025 1.025 0 102.049 0V48.576c0-.566-.459-1.025-1.025-1.025z" fill="url(#paint1_linear)"/></g><defs><linearGradient id="paint0_linear" x1="35" y1="8.656" x2="35" y2="61.344" gradientUnits="userSpaceOnUse"><stop stop-color="#FC6D2B"/><stop offset="1" stop-color="#F51E4A"/></linearGradient><linearGradient id="paint1_linear" x1="44.206" y1="47.551" x2="44.206" y2="61.344" gradientUnits="userSpaceOnUse"><stop stop-color="#FC6D2B"/><stop offset="1" stop-color="#F51E4A"/></linearGradient><clipPath id="clip0"><path fill="#fff" d="M0 0h70v70H0z"/></clipPath></defs></svg>