<svg width="40" height="40" fill="none" xmlns="http://www.w3.org/2000/svg"><path d="M29.588 25.915l-1.567-.335-.006-.002-3.757-.804c.025-.184.039-.37.04-.555v-1.745a7.973 7.973 0 003.681-6.715v-1.421h.859a.549.549 0 00.547-.547v-1.875a.549.549 0 00-.547-.547h-.395a8.422 8.422 0 00-6.489-8.096V2.03a.549.549 0 00-.547-.547h-2.812a.547.547 0 00-.547.547v1.242a8.423 8.423 0 00-6.489 8.096h-.394a.545.545 0 00-.547.547v1.875a.547.547 0 00.547.546h.858v1.422a7.975 7.975 0 003.681 6.715v1.745c.002.185.015.371.04.555l-3.757.804h-.004l-1.568.335a4.318 4.318 0 00-3.401 4.203v7.853a.547.547 0 00.547.547h24.88a.547.547 0 00.548-.547v-7.853a4.317 4.317 0 00-3.401-4.2zM27.349 11.37h-2.582V8.166a.547.547 0 10-1.094 0v3.203h-1.719V4.393a7.336 7.336 0 015.395 6.976zm-8.207-8.79h1.718v8.79h-1.718V2.58zm-1.094 1.814v6.976h-1.719V8.166a.547.547 0 10-1.094 0v3.203h-2.582a7.337 7.337 0 015.395-6.976zm-6.336 8.07H28.29v.78H11.71v-.78zm1.406 3.296v-1.421h13.768v1.421a6.885 6.885 0 01-13.77 0h.002zM20 23.734a7.936 7.936 0 003.203-.672v1.157a3.203 3.203 0 01-6.406 0v-1.157c1.01.445 2.1.673 3.203.672zM8.107 30.116a3.219 3.219 0 012.537-3.131l.91-.195v10.632H8.107v-7.306zm4.541-3.56l3.375-.723a4.306 4.306 0 003.433 2.644v8.945h-6.808V26.556zm7.9 10.866v-8.945a4.303 4.303 0 003.433-2.644l3.374.723v10.866h-6.807zm11.347 0h-3.447V26.79l.91.195a3.218 3.218 0 012.537 3.13v7.307z" fill="url(#paint0_linear)"/><path d="M30.566 31.893a.545.545 0 00-.546.547v1.955a.547.547 0 101.093 0V32.44a.547.547 0 00-.547-.547z" fill="url(#paint1_linear)"/><path d="M17.457 30.65h-2.813a.547.547 0 000 1.094h2.813a.547.547 0 000-1.094z" fill="url(#paint2_linear)"/><defs><linearGradient id="paint0_linear" x1="20.001" y1="1.484" x2="20.001" y2="38.516" gradientUnits="userSpaceOnUse"><stop stop-color="#FC6D2B"/><stop offset="1" stop-color="#F51E4A"/></linearGradient><linearGradient id="paint1_linear" x1="30.566" y1="31.893" x2="30.566" y2="34.941" gradientUnits="userSpaceOnUse"><stop stop-color="#FC6D2B"/><stop offset="1" stop-color="#F51E4A"/></linearGradient><linearGradient id="paint2_linear" x1="16.051" y1="30.65" x2="16.051" y2="31.744" gradientUnits="userSpaceOnUse"><stop stop-color="#FC6D2B"/><stop offset="1" stop-color="#F51E4A"/></linearGradient></defs></svg>