<svg width="70" height="70" fill="none" xmlns="http://www.w3.org/2000/svg"><g clip-path="url(#clip0)"><path d="M66.309 11.306h-1.265v-2.82a3.695 3.695 0 00-3.692-3.692h-3.965a3.695 3.695 0 00-3.69 3.692v9.57H43.493v-.304a3.555 3.555 0 00-3.13-3.56 3.495 3.495 0 00-2.85 1.06 3.479 3.479 0 00-2.85-1.06 3.386 3.386 0 00-2.157 1.086 3.455 3.455 0 00-5.043-.02 3.464 3.464 0 00-5.981 2.386v.412h-5.178v-9.57a3.696 3.696 0 00-3.691-3.692H8.648a3.695 3.695 0 00-3.692 3.692v2.82H3.691A3.696 3.696 0 000 14.995v16.168a3.696 3.696 0 003.691 3.692h1.265v2.82a3.695 3.695 0 003.692 3.69h3.965a3.696 3.696 0 003.691-3.69v-9.571h5.188c0 .02 0 .042.003.063a.93.93 0 00-.012.125v3.937a10.336 10.336 0 001.284 4.983l3.74 6.775v20.26a.957.957 0 00.958.957h15.071a.957.957 0 00.957-.956V44.042l3.921-5.651a6.167 6.167 0 001.105-3.53v-6.758h5.178v9.57a3.695 3.695 0 003.691 3.692h3.965a3.696 3.696 0 003.691-3.691v-2.818h1.265a3.696 3.696 0 003.692-3.692V14.997a3.696 3.696 0 00-3.692-3.691zm-27.84 6.34a1.555 1.555 0 011.711-1.548 1.627 1.627 0 011.4 1.656v.304h-3.204a.953.953 0 00.093-.412zm-3.625-1.548a1.555 1.555 0 011.711 1.548c0 .142.032.283.093.412H35c-.54 0-1.073.127-1.555.369v-.673a1.628 1.628 0 011.4-1.656zm1.711 11.82a1.556 1.556 0 01-3.11 0v-3.325a3.636 3.636 0 001.663.404h1.447v2.92zm-6.58-11.827a1.557 1.557 0 011.556 1.555v10.272a1.555 1.555 0 11-3.11 0V17.646a1.557 1.557 0 011.555-1.555zm-6.58 1.555a1.555 1.555 0 113.111 0v10.272a1.555 1.555 0 01-3.11 0V17.646zM3.692 32.941a1.78 1.78 0 01-1.777-1.777V14.997a1.78 1.78 0 011.777-1.777h1.265v19.72H3.691zm10.699 4.734a1.78 1.78 0 01-1.777 1.778H8.648a1.779 1.779 0 01-1.778-1.778V8.485A1.779 1.779 0 018.648 6.71h3.965a1.78 1.78 0 011.777 1.777v29.19zm1.914-17.703h5.178v6.217h-5.178v-6.217zm30.3 14.89c0 .872-.267 1.724-.765 2.44l-4.091 5.895a.958.958 0 00-.17.546v19.55H28.42v-19.55a.956.956 0 00-.119-.463l-3.86-6.992a8.418 8.418 0 01-1.045-4.058v-1.216a3.445 3.445 0 004.067-.71 3.453 3.453 0 005.025 0 3.453 3.453 0 005.024 0 3.465 3.465 0 005.981-2.386V24.04a.957.957 0 00-.957-.957H35.11a1.627 1.627 0 01-1.655-1.4 1.657 1.657 0 01-.008-.145v-.021A1.556 1.556 0 0135 19.972h7.325l.172.01h.01a4.281 4.281 0 014.097 4.27v10.61zm-8.135-9.866h3.11v2.922a1.557 1.557 0 01-3 .604 1.555 1.555 0 01-.11-.604v-2.921zm10.05 1.193v-1.938a6.173 6.173 0 00-1.72-4.28h6.898v6.218h-5.179zm14.61 11.485a1.78 1.78 0 01-1.777 1.777h-3.965a1.78 1.78 0 01-1.777-1.777V8.486a1.78 1.78 0 011.777-1.778h3.965a1.78 1.78 0 011.778 1.778v29.19-.002zm4.957-6.51a1.78 1.78 0 01-1.777 1.777h-1.265V13.22h1.265a1.78 1.78 0 011.777 1.777v16.167z" fill="url(#paint0_linear)"/></g><defs><linearGradient id="paint0_linear" x1="35" y1="4.794" x2="35" y2="65.206" gradientUnits="userSpaceOnUse"><stop stop-color="#FC6D2B"/><stop offset="1" stop-color="#F51E4A"/></linearGradient><clipPath id="clip0"><path fill="#fff" d="M0 0h70v70H0z"/></clipPath></defs></svg>