<svg width="130" height="126" fill="none" xmlns="http://www.w3.org/2000/svg"><path d="M123.036 44.066c-1.715-5.312-.984-13.285-5.442-19.442-4.494-6.204-12.309-7.968-16.723-11.196-4.366-3.193-8.429-10.143-15.774-12.54C77.959-1.442 70.66 1.72 65 1.72c-5.659 0-12.958-3.162-20.097-.832-7.344 2.396-11.41 9.347-15.774 12.54-4.408 3.223-12.23 4.992-16.722 11.196-4.455 6.151-3.731 14.143-5.443 19.442C5.334 49.109 0 55.162 0 63c0 7.843 5.328 13.873 6.964 18.934 1.715 5.312.984 13.285 5.442 19.442 4.494 6.205 12.309 7.968 16.723 11.196 4.366 3.193 8.429 10.144 15.774 12.54 7.133 2.328 14.444-.831 20.097-.831 5.645 0 12.973 3.156 20.097.831 7.344-2.396 11.407-9.346 15.774-12.539 4.408-3.224 12.229-4.993 16.722-11.197 4.455-6.151 3.731-14.142 5.443-19.442C124.666 76.892 130 70.84 130 63.001c0-7.843-5.327-13.871-6.964-18.935zm-9.664 34.746c-1.999 6.19-1.475 13.116-4.004 16.608-2.563 3.538-9.296 5.155-14.492 8.955-5.139 3.758-8.74 9.716-12.93 11.083-3.962 1.293-10.42-1.333-16.946-1.333-6.572 0-12.964 2.632-16.946 1.333-4.189-1.367-7.785-7.321-12.93-11.083-5.165-3.777-11.936-5.427-14.492-8.956-2.52-3.48-2.017-10.454-4.004-16.606C14.68 72.785 10.156 67.566 10.156 63c0-4.57 4.52-9.771 6.472-15.812 2-6.189 1.475-13.116 4.004-16.608 2.562-3.536 9.3-5.158 14.492-8.955 5.155-3.77 8.734-9.714 12.93-11.082C52.012 9.252 58.491 11.876 65 11.876c6.584 0 12.96-2.633 16.946-1.332 4.188 1.366 7.788 7.322 12.93 11.082 5.164 3.777 11.936 5.427 14.492 8.956 2.521 3.48 2.014 10.448 4.004 16.606 1.948 6.028 6.472 11.247 6.472 15.813 0 4.57-4.52 9.77-6.472 15.811zm-24.976-32.11a5.078 5.078 0 010 7.18L62.978 79.3a5.078 5.078 0 01-7.182 0L41.605 65.108a5.078 5.078 0 117.18-7.181l10.602 10.6 21.827-21.826a5.079 5.079 0 017.182 0z" fill="url(#paint0_linear)"/><defs><linearGradient id="paint0_linear" x1="65" y1=".031" x2="65" y2="125.969" gradientUnits="userSpaceOnUse"><stop stop-color="#FC6D2B"/><stop offset="1" stop-color="#F51E4A"/></linearGradient></defs></svg>