<svg width="70" height="70" fill="none" xmlns="http://www.w3.org/2000/svg"><g clip-path="url(#clip0)"><path d="M69.715 29.854l-11.716-15.22a1.373 1.373 0 00-1.825-.32l-7.564 4.81h-9.866a1.36 1.36 0 00-.377.064l-7.65 2.202-7.937-2.171-7.712-4.905a1.372 1.372 0 00-1.805.296L.304 30.66a1.372 1.372 0 00.174 1.903l6.792 5.845 6.093 8.212a4.856 4.856 0 00.107 6.747 4.83 4.83 0 002.942 1.394 4.88 4.88 0 00-.056.742c0 1.295.504 2.513 1.42 3.43a4.82 4.82 0 003.43 1.42l.052-.001-.002.099c0 1.295.505 2.513 1.42 3.43a4.821 4.821 0 003.431 1.42c.256 0 .509-.02.757-.059a4.826 4.826 0 001.395 2.954 4.834 4.834 0 003.43 1.418 4.836 4.836 0 003.43-1.418l.742-.742.311.25a4.834 4.834 0 003.373 1.363 4.834 4.834 0 003.43-1.418 4.837 4.837 0 001.418-3.507 4.842 4.842 0 004.924-4.92 4.824 4.824 0 003.506-1.42 4.837 4.837 0 001.418-3.507 4.838 4.838 0 003.506-1.418 4.858 4.858 0 00.637-6.072l4.45-9.318 6.689-5.756c.552-.476.637-1.3.192-1.878zM14.629 17.288l5.546 3.526L8.11 35.512 3.277 31.35l11.352-14.063zm.782 31.161l1.674-1.674a2.1 2.1 0 011.302-.608h.036a2.093 2.093 0 011.682.652c.775.819.733 2.158-.093 2.985l-1.623 1.623a2.11 2.11 0 01-2.978 0 2.108 2.108 0 010-2.978zm4.307 8.543a2.09 2.09 0 01-.617-1.488c0-.563.219-1.092.617-1.49l3.245-3.245a2.128 2.128 0 012.394-.413c.819.39 1.28 1.28 1.16 2.174a2.223 2.223 0 01-.627 1.268l-3.195 3.194a2.092 2.092 0 01-1.489.617 2.092 2.092 0 01-1.488-.617zm4.9 4.948a2.09 2.09 0 01-.617-1.488c0-.563.22-1.091.617-1.49l3.245-3.245a2.13 2.13 0 012.545-.334 2.095 2.095 0 011.005 2.128 2.22 2.22 0 01-.623 1.235l-3.194 3.194a2.092 2.092 0 01-1.489.617 2.092 2.092 0 01-1.489-.617zm5.582 4.315a2.108 2.108 0 010-2.977l1.674-1.674a2.192 2.192 0 01.162-.146 2.09 2.09 0 01.933-.434l.024-.003c.059-.01.119-.02.178-.025l.073-.003c.05-.003.098-.006.148-.006a2.092 2.092 0 011.637.82c.631.825.546 2.05-.237 2.834l-1.615 1.615c-.82.82-2.156.82-2.977 0zm25.605-15.318c-.82.821-2.156.82-2.977 0a1.246 1.246 0 00-.094-.084l-8.825-8.919a1.372 1.372 0 00-1.952 1.931l8.922 9.015.003.003c.82.82.82 2.157 0 2.978a2.092 2.092 0 01-1.49.617 2.09 2.09 0 01-1.488-.617l-5.968-6.03a1.372 1.372 0 10-1.951 1.93l5.877 5.939c.03.037.062.073.096.107.82.82.82 2.157 0 2.978a2.11 2.11 0 01-2.979 0l-3.257-3.292a1.373 1.373 0 10-1.951 1.93l3.166 3.2c.03.037.062.073.097.107a2.11 2.11 0 010 2.978 2.106 2.106 0 01-2.977 0c-.095-.094-.206-.167-.312-.248-.09-.068-.113-.116-.068-.225.045-.11.113-.21.158-.321.05-.124.091-.252.13-.38a4.95 4.95 0 00.179-2.112 4.83 4.83 0 00-2.05-3.34 4.82 4.82 0 00-2.042-.792c.353-1.56-.071-3.25-1.176-4.417a4.814 4.814 0 00-3.602-1.517c.03-1.26-.429-2.513-1.298-3.431a4.817 4.817 0 00-3.457-1.517 4.94 4.94 0 00-1.171.124 4.814 4.814 0 00-1.605-2.941 4.811 4.811 0 00-3.102-1.178 4.862 4.862 0 00-3.314 1.247l-5.306-7.15 12.694-15.464 4.045 1.107-5.283 9.323a4.818 4.818 0 00-.455 3.684 4.818 4.818 0 002.497 3.042l.017.008a4.82 4.82 0 003.455.333 4.82 4.82 0 002.927-2.284L33.35 31.2l6.13.435 16.325 16.324a2.11 2.11 0 010 2.978zm.57-6.292L41.06 29.331a1.373 1.373 0 00-.873-.398l-7.506-.532a1.395 1.395 0 00-1.292.692l-3.86 6.813a2.09 2.09 0 01-1.27.99 2.09 2.09 0 01-1.6-.197 2.092 2.092 0 01-.991-1.27 2.09 2.09 0 01.198-1.6l5.153-9.094 2.088-.601.04-.014 7.794-2.25h9.417l11.756 14.944-3.74 7.831zm5.537-9.986L51.04 20.832l5.548-3.529 10.158 13.195-4.835 4.161z" fill="url(#paint0_linear)"/><path d="M42.408 16.547c.351 0 .703-.134.97-.402l9.377-9.376a1.372 1.372 0 10-1.942-1.941l-9.376 9.376a1.372 1.372 0 00.97 2.343z" fill="url(#paint1_linear)"/><path d="M26.62 16.145a1.369 1.369 0 001.942 0 1.372 1.372 0 000-1.941l-9.376-9.376a1.372 1.372 0 10-1.941 1.941l9.376 9.376z" fill="url(#paint2_linear)"/><path d="M35 16.547c.758 0 1.373-.615 1.373-1.372v-7.76a1.373 1.373 0 00-2.745 0v7.76c0 .757.615 1.372 1.372 1.372z" fill="url(#paint3_linear)"/><path d="M33.733 2.44a1.38 1.38 0 001.334.846 1.386 1.386 0 001.239-.951 1.383 1.383 0 00-.47-1.508 1.387 1.387 0 00-1.598-.053 1.382 1.382 0 00-.505 1.667z" fill="url(#paint4_linear)"/></g><defs><linearGradient id="paint0_linear" x1="35" y1="14.099" x2="35" y2="69.615" gradientUnits="userSpaceOnUse"><stop stop-color="#FC6D2B"/><stop offset="1" stop-color="#F51E4A"/></linearGradient><linearGradient id="paint1_linear" x1="47.096" y1="4.426" x2="47.096" y2="16.547" gradientUnits="userSpaceOnUse"><stop stop-color="#FC6D2B"/><stop offset="1" stop-color="#F51E4A"/></linearGradient><linearGradient id="paint2_linear" x1="22.904" y1="4.426" x2="22.904" y2="16.547" gradientUnits="userSpaceOnUse"><stop stop-color="#FC6D2B"/><stop offset="1" stop-color="#F51E4A"/></linearGradient><linearGradient id="paint3_linear" x1="35" y1="6.043" x2="35" y2="16.547" gradientUnits="userSpaceOnUse"><stop stop-color="#FC6D2B"/><stop offset="1" stop-color="#F51E4A"/></linearGradient><linearGradient id="paint4_linear" x1="35.001" y1=".547" x2="35.001" y2="3.287" gradientUnits="userSpaceOnUse"><stop stop-color="#FC6D2B"/><stop offset="1" stop-color="#F51E4A"/></linearGradient><clipPath id="clip0"><path fill="#fff" d="M0 0h70v70H0z"/></clipPath></defs></svg>