<svg width="50" height="50" fill="none" xmlns="http://www.w3.org/2000/svg"><path d="M25 27.683c-1.68 0-3.046-1.49-3.046-3.322 0-2.297 2.134-2.297 3.046-2.297.911 0 3.046 0 3.046 2.297 0 1.832-1.366 3.322-3.046 3.322zm0-4.154c-1.518 0-1.581.255-1.581.832 0 1.024.709 1.857 1.58 1.857.873 0 1.582-.833 1.582-1.857 0-.577-.064-.832-1.581-.832z" fill="#F51E4A"/><path d="M45.361 19.238h-3.173v-5.81a4.644 4.644 0 00-4.64-4.639h-3.054C34.118 3.88 30.004 0 25 0s-9.118 3.88-9.494 8.79h-3.055a4.644 4.644 0 00-4.639 4.638v5.81H4.64A4.644 4.644 0 000 23.877v21.484A4.644 4.644 0 004.639 50H45.36A4.644 4.644 0 0050 45.361V23.877a4.644 4.644 0 00-4.639-4.639zM1.465 45.361V23.877a3.178 3.178 0 013.174-3.174h3.173v11.475a.733.733 0 001.465 0v-18.75a3.177 3.177 0 013.174-3.174h3.055c.376 4.91 4.49 8.789 9.494 8.789 1.992 0 3.9-.609 5.517-1.76a.732.732 0 00-.85-1.194A8.001 8.001 0 0125 17.58c-4.442 0-8.057-3.615-8.057-8.058 0-4.442 3.614-8.056 8.057-8.056 4.442 0 8.057 3.614 8.057 8.056a8 8 0 01-1.49 4.668.732.732 0 101.194.85 9.444 9.444 0 001.733-4.785h3.055a3.178 3.178 0 013.174 3.174v35.107h-5.225v-12.31a2.69 2.69 0 001.953-2.582 2.689 2.689 0 00-2.685-2.686H15.234a2.689 2.689 0 00-2.685 2.686 2.69 2.69 0 001.953 2.583v12.31H9.277V35.106a.732.732 0 00-1.464 0v13.428H4.639a3.178 3.178 0 01-3.174-3.174zm33.3-10.498h-19.53a1.221 1.221 0 01-.001-2.441h19.532a1.222 1.222 0 010 2.441zm-18.798 1.465h8.3v12.207h-8.3V36.328zm9.765 0h8.301v12.207h-8.3V36.328zm22.803 9.033a3.178 3.178 0 01-3.174 3.174h-3.173V20.703h3.173a3.178 3.178 0 013.174 3.174v21.484z" fill="#F51E4A"/><path d="M27.93 6.836h-.244v-.244A2.688 2.688 0 0025 3.906a2.688 2.688 0 00-2.686 2.686v.244h-.244a2.689 2.689 0 00-2.685 2.685 2.689 2.689 0 002.685 2.686h.244v.244A2.688 2.688 0 0025 15.137a2.688 2.688 0 002.686-2.686v-.244h.244a2.689 2.689 0 002.685-2.686 2.689 2.689 0 00-2.685-2.685zm0 3.906h-.977a.732.732 0 00-.732.733v.976a1.222 1.222 0 01-2.441 0v-.976a.732.732 0 00-.733-.733h-.977a1.221 1.221 0 010-2.441h.977a.732.732 0 00.732-.733v-.976a1.222 1.222 0 012.441 0v.976c0 .405.329.733.733.733h.977a1.221 1.221 0 010 2.441z" fill="#F51E4A"/></svg>