<svg width="60" height="60" fill="none" xmlns="http://www.w3.org/2000/svg"><g clip-path="url(#clip0)"><path d="M59.645.237a.992.992 0 00-.809-.222L41.567 2.893a47.03 47.03 0 01-13.22.314L1.118.007A1 1 0 000 1v40a1.001 1.001 0 001.117.993L7.5 41.24c.142.593.316 1.178.52 1.752L11 51.176V59a1 1 0 001 1h12a1 1 0 001-1v-7.734l2.814-4.925A9.015 9.015 0 0029 41.875V38.73a40.467 40.467 0 012-.163v3.31a9.02 9.02 0 001.186 4.465L35 51.266V59a1 1 0 001 1h12a1 1 0 001-1v-7.824l2.977-8.186c.238-.67.434-1.353.586-2.047l6.273 1.043A1 1 0 0059.999 41V1a1 1 0 00-.354-.763zM27 41.875a7.02 7.02 0 01-.922 3.474L23.132 50.5A.998.998 0 0023 51v7H13v-7a.995.995 0 00-.06-.342l-3.04-8.35a15 15 0 01-.9-5.127v-6.074c-.018-.513.326-.97.824-1.093A1 1 0 0111 31v4a1 1 0 002 0v-8.893c-.018-.513.326-.97.824-1.093A1 1 0 0115 26v9a1 1 0 102 0V25a1.003 1.003 0 011.175-.986c.5.123.844.58.825 1.093V35a1 1 0 102 0v-8a1.003 1.003 0 011.175-.986c.5.123.844.58.825 1.093V39a1 1 0 002 0v-4.764a.992.992 0 01.5-.866.977.977 0 011.006 0c.321.214.508.58.493.965v7.54zm24-4.694a14.98 14.98 0 01-.9 5.126l-3.037 8.351A.998.998 0 0047 51v7H37v-7a.998.998 0 00-.132-.5l-2.946-5.155a7.024 7.024 0 01-.922-3.47V34.34a1.106 1.106 0 01.493-.965.978.978 0 011.006 0 .99.99 0 01.5.866V39a1 1 0 002 0V27.107c-.018-.513.325-.97.824-1.093.294-.05.595.032.823.224A1 1 0 0139 27v8a1 1 0 102 0v-9.893c-.018-.513.325-.97.824-1.093A.999.999 0 0143 25v10a1 1 0 102 0v-9a1.003 1.003 0 011.175-.986c.499.123.844.58.825 1.093V35a1 1 0 002 0v-4a1.003 1.003 0 011.175-.986c.499.123.844.58.825 1.093v6.074zm7-17.18h-6a1 1 0 000 2h6V39.82l-5.1-.849c.065-.594.098-1.192.1-1.79v-6.074a3.08 3.08 0 00-2.5-3.066 3.024 3.024 0 00-1.5.131v-2.065a3.081 3.081 0 00-2.5-3.066 3 3 0 00-1.967.345 2.98 2.98 0 00-5.4.834 3.037 3.037 0 00-1.623-.179A3.082 3.082 0 0035 27.107v4.3a2.97 2.97 0 00-2.505.235A3.092 3.092 0 0031 34.34v2.224a45.45 45.45 0 00-2 .156v-2.38a3.09 3.09 0 00-1.5-2.7 2.98 2.98 0 00-2.5-.235v-4.3a3.08 3.08 0 00-2.5-3.066 3.022 3.022 0 00-1.622.179 2.986 2.986 0 00-5.4-.834 3 3 0 00-1.968-.345 3.082 3.082 0 00-2.51 3.07v2.064a3.029 3.029 0 00-1.5-.13A3.082 3.082 0 007 31.106v6.074c.005.698.053 1.394.144 2.086L2 39.875V22h10a1 1 0 100-2H2V2.125l26.113 3.068c4.588.542 9.23.432 13.787-.326L58 2.182V20z" fill="url(#paint0_linear)"/><path d="M37 20a5.006 5.006 0 00-5 5 1 1 0 002 0 3 3 0 013-3 1 1 0 100-2z" fill="url(#paint1_linear)"/><path d="M52 26a2 2 0 012 2 1 1 0 102 0 4 4 0 00-4-4 1 1 0 000 2z" fill="url(#paint2_linear)"/><path d="M23 20a1 1 0 000 2 3 3 0 013 3 1 1 0 102 0 5.006 5.006 0 00-5-5z" fill="url(#paint3_linear)"/><path d="M8 25a4 4 0 00-4 4 1 1 0 002 0 2 2 0 012-2 1 1 0 100-2z" fill="url(#paint4_linear)"/><path d="M19.001 20h-3a1 1 0 000 2h3a1 1 0 100-2z" fill="url(#paint5_linear)"/></g><defs><linearGradient id="paint0_linear" x1="30" y1="0" x2="30" y2="60" gradientUnits="userSpaceOnUse"><stop stop-color="#FC6D2B"/><stop offset="1" stop-color="#F51E4A"/></linearGradient><linearGradient id="paint1_linear" x1="35" y1="20" x2="35" y2="26" gradientUnits="userSpaceOnUse"><stop stop-color="#FC6D2B"/><stop offset="1" stop-color="#F51E4A"/></linearGradient><linearGradient id="paint2_linear" x1="53.501" y1="24" x2="53.501" y2="29" gradientUnits="userSpaceOnUse"><stop stop-color="#FC6D2B"/><stop offset="1" stop-color="#F51E4A"/></linearGradient><linearGradient id="paint3_linear" x1="25" y1="20" x2="25" y2="26" gradientUnits="userSpaceOnUse"><stop stop-color="#FC6D2B"/><stop offset="1" stop-color="#F51E4A"/></linearGradient><linearGradient id="paint4_linear" x1="6.5" y1="25" x2="6.5" y2="30" gradientUnits="userSpaceOnUse"><stop stop-color="#FC6D2B"/><stop offset="1" stop-color="#F51E4A"/></linearGradient><linearGradient id="paint5_linear" x1="17.501" y1="20" x2="17.501" y2="22" gradientUnits="userSpaceOnUse"><stop stop-color="#FC6D2B"/><stop offset="1" stop-color="#F51E4A"/></linearGradient><clipPath id="clip0"><path fill="#fff" d="M0 0h60v60H0z"/></clipPath></defs></svg>