<svg width="70" height="70" fill="none" xmlns="http://www.w3.org/2000/svg"><g clip-path="url(#clip0)"><path d="M37.443 47.374c-.899 0-1.778.258-2.535.728a4.808 4.808 0 00-2.535-.728c-2.679 0-4.858 2.22-4.858 4.948 0 1.547 1.117 3.41 3.416 5.696a35.975 35.975 0 003.146 2.766 1.367 1.367 0 001.663 0 35.955 35.955 0 003.146-2.766c2.298-2.285 3.416-4.149 3.416-5.696 0-2.729-2.18-4.948-4.859-4.948zm-2.535 10.573c-2.38-1.972-4.656-4.504-4.656-5.625 0-1.22.951-2.211 2.121-2.211.582 0 1.125.241 1.53.679a1.369 1.369 0 002.011 0c.404-.438.947-.68 1.53-.68 1.169 0 2.12.993 2.12 2.212 0 1.118-2.277 3.651-4.656 5.625z" fill="url(#paint0_linear)"/><path d="M33.096 36.87c-.888-.765-1.946-1.1-2.982-.94-6.432.995-9.498 6.022-9.625 6.236a1.369 1.369 0 002.35 1.402c.025-.041 2.52-4.133 7.693-4.932.31-.047.62.172.776.307.484.417.82 1.11.816 1.687a1.28 1.28 0 01-.871 1.212c-2.551.848-4.308 1.855-5.223 2.993l-5.24 6.522c-.54.673-1.286 1.045-2.042 1.02a1.007 1.007 0 01-.772-.352c-1.316-1.438-1.056-6.126-.945-8.127.018-.31.033-.59.044-.832.536-12.365 5.358-15.887 12.964-17.562l.47-.103a1.368 1.368 0 10-.588-2.673l-.471.104c-5.056 1.113-8.523 3.024-10.91 6.012-2.589 3.243-3.923 7.724-4.2 14.104-.01.232-.025.5-.041.798-.211 3.792-.275 8.015 1.657 10.127a3.752 3.752 0 002.701 1.239 4.792 4.792 0 00.452-.006c.034 2.228.54 4.369 1.51 6.365a1.368 1.368 0 102.462-1.195 12.275 12.275 0 01-1.238-5.408v-.76a5.651 5.651 0 001.08-1.037l5.24-6.521c.555-.69 1.996-1.46 3.953-2.11a4.017 4.017 0 002.745-3.795c.008-1.383-.668-2.829-1.765-3.775z" fill="url(#paint1_linear)"/><path d="M25.245 63.399l-.035-.038a1.368 1.368 0 10-1.998 1.871l.059.062a1.364 1.364 0 001.934.04c.546-.523.564-1.39.04-1.935z" fill="url(#paint2_linear)"/><path d="M47.062 25.426a20.597 20.597 0 00-6.471-2.704 1.369 1.369 0 00-.613 2.667 17.87 17.87 0 015.614 2.346 1.368 1.368 0 101.47-2.309z" fill="url(#paint3_linear)"/><path d="M50.895 28.585l-.073-.075a1.368 1.368 0 10-1.969 1.9l.061.064a1.364 1.364 0 001.935.046 1.368 1.368 0 00.046-1.935z" fill="url(#paint4_linear)"/><path d="M53.96 32.714a1.368 1.368 0 10-2.384 1.346c1.38 2.445 1.49 5.312 1.49 8.805v4.17c0 4.816-1.102 11.58-6.356 16.455-.962.893-2.812 1.798-5.348 2.616l-.268.072a2.165 2.165 0 01-1.722-.379 2.16 2.16 0 01-.895-1.767 2.172 2.172 0 011.567-2.09c2.429-.719 4.174-1.56 5.187-2.5 3.613-3.354 3.426-8.544 3.261-13.123a79.392 79.392 0 01-.069-2.833c0-.098-.01-.193-.03-.285.282-.524.47-1.067.562-1.633.414-2.553-1.243-4.71-2.575-6.444-.526-.686-1.321-1.721-1.329-2.089a1.369 1.369 0 00-2.736 0c0 1.287.878 2.431 1.895 3.756 1.063 1.384 2.268 2.954 2.044 4.34-.146.9-.909 1.823-2.267 2.74a1.369 1.369 0 001.533 2.268l.222-.155.015.433c.151 4.188.307 8.517-2.387 11.018-.682.633-2.139 1.302-4.103 1.883a4.891 4.891 0 00-3.527 4.708 4.868 4.868 0 001.024 3.02c-1.568.21-2.51.218-2.526.218-2.013 0-4.01-.493-5.777-1.426a1.369 1.369 0 00-1.278 2.42 15.167 15.167 0 007.055 1.743c.13 0 3.147-.014 7.516-1.166.093-.022.185-.048.277-.074l.085-.023.02-.007.038-.01c2.97-.956 5.123-2.04 6.398-3.224 4.731-4.391 7.232-10.775 7.232-18.46v-4.171c0-3.768-.14-7.132-1.845-10.152z" fill="url(#paint5_linear)"/><path d="M34.922 0c-1.575 0-3.07.347-4.415.965a5.634 5.634 0 00-7.666 1.305 5.634 5.634 0 001.16 7.875c.097.072.2.13.308.172-.003.101-.007.201-.007.303v1.682c0 5.856 4.764 10.62 10.62 10.62 5.855 0 10.62-4.764 10.62-10.62V10.62C45.541 4.764 40.776 0 34.921 0zm-9.884 3.903a2.893 2.893 0 012.74-1.134 10.65 10.65 0 00-2.886 4.365 2.894 2.894 0 01.146-3.23zm9.884 16.282c-4.049 0-7.392-3.068-7.833-7 2.059-.155 6.515-.794 9.472-3.424 2.045 2.295 4.841 3.087 6.202 3.348-.405 3.97-3.767 7.076-7.841 7.076zm2.946-13.26a1.369 1.369 0 00-2.283-.124c-2.05 2.772-6.503 3.465-8.542 3.638.097-4.263 3.592-7.702 7.878-7.702 4.246 0 7.716 3.374 7.876 7.581-1.326-.324-3.644-1.186-4.93-3.393z" fill="url(#paint6_linear)"/></g><defs><linearGradient id="paint0_linear" x1="34.908" y1="47.374" x2="34.908" y2="61.066" gradientUnits="userSpaceOnUse"><stop stop-color="#FC6D2B"/><stop offset="1" stop-color="#F51E4A"/></linearGradient><linearGradient id="paint1_linear" x1="24.529" y1="22.696" x2="24.529" y2="62.242" gradientUnits="userSpaceOnUse"><stop stop-color="#FC6D2B"/><stop offset="1" stop-color="#F51E4A"/></linearGradient><linearGradient id="paint2_linear" x1="24.235" y1="62.928" x2="24.235" y2="65.715" gradientUnits="userSpaceOnUse"><stop stop-color="#FC6D2B"/><stop offset="1" stop-color="#F51E4A"/></linearGradient><linearGradient id="paint3_linear" x1="43.306" y1="22.687" x2="43.306" y2="27.949" gradientUnits="userSpaceOnUse"><stop stop-color="#FC6D2B"/><stop offset="1" stop-color="#F51E4A"/></linearGradient><linearGradient id="paint4_linear" x1="49.871" y1="28.092" x2="49.871" y2="30.898" gradientUnits="userSpaceOnUse"><stop stop-color="#FC6D2B"/><stop offset="1" stop-color="#F51E4A"/></linearGradient><linearGradient id="paint5_linear" x1="41.129" y1="31.667" x2="41.129" y2="70.001" gradientUnits="userSpaceOnUse"><stop stop-color="#FC6D2B"/><stop offset="1" stop-color="#F51E4A"/></linearGradient><linearGradient id="paint6_linear" x1="33.637" y1="0" x2="33.637" y2="22.922" gradientUnits="userSpaceOnUse"><stop stop-color="#FC6D2B"/><stop offset="1" stop-color="#F51E4A"/></linearGradient><clipPath id="clip0"><path fill="#fff" d="M0 0h70v70H0z"/></clipPath></defs></svg>