<svg width="50" height="50" fill="none" xmlns="http://www.w3.org/2000/svg"><path d="M43.428 22.313a.782.782 0 01-.767-.638 18.12 18.12 0 00-.337-1.458.78.78 0 111.507-.415c.142.518.266 1.051.366 1.585a.783.783 0 01-.769.925zm-1.114-3.735a.781.781 0 01-.722-.48c-.19-.458-.404-.914-.633-1.356a.782.782 0 111.387-.72c.25.48.48.977.689 1.475a.782.782 0 01-.72 1.081zm-1.868-3.422a.781.781 0 01-.644-.337 17.76 17.76 0 00-.9-1.196.782.782 0 011.207-.992c.343.417.672.86.98 1.301a.782.782 0 01-.643 1.224zm-2.535-2.963a.781.781 0 01-.538-.214 18.42 18.42 0 00-1.128-.986.78.78 0 11.979-1.217c.423.34.836.703 1.225 1.07a.782.782 0 01-.538 1.347zm.959 11.269a.782.782 0 01-.77-.653c-.08-.486-.188-.966-.322-1.439a.782.782 0 111.503-.427c.15.53.27 1.067.361 1.61a.783.783 0 01-.772.909zm-1.167-3.714a.781.781 0 01-.703-.445 13.418 13.418 0 00-.709-1.294.781.781 0 111.326-.822c.29.468.554.95.79 1.447a.781.781 0 01-.702 1.117l-.002-.003zm-2.146-3.249a.777.777 0 01-.587-.265c-.325-.37-.67-.72-1.035-1.053a.783.783 0 01.188-1.295.78.78 0 01.865.141c.406.37.791.761 1.155 1.172a.781.781 0 01-.586 1.298v.002z" fill="#00AFAA"/><path d="M25 44.531a19.531 19.531 0 01-.781-39.047v-3.14a.782.782 0 011.215-.65l9.375 6.25a.782.782 0 010 1.3l-9.375 6.25a.782.782 0 01-1.215-.65V11.74A13.282 13.282 0 1038.28 25a.781.781 0 01.782-.781h4.687a.781.781 0 01.781.781A19.553 19.553 0 0125 44.531zm.781-40.728V6.25a.781.781 0 01-.78.781 17.969 17.969 0 1017.951 18.75h-3.128A14.844 14.844 0 1125 10.156a.781.781 0 01.781.781v2.447l7.188-4.79-7.188-4.79z" fill="#00AFAA"/><path d="M22.656 32.031h-6.25a.781.781 0 01-.781-.781v-.926a3.905 3.905 0 011.334-2.94l4.115-3.601a2.343 2.343 0 00.801-1.764v-.144a2.344 2.344 0 10-4.688 0v1.563a.781.781 0 11-1.562 0v-1.563a3.906 3.906 0 017.813 0v.145a3.905 3.905 0 01-1.335 2.94l-4.115 3.6a2.344 2.344 0 00-.8 1.764v.145h5.468a.781.781 0 110 1.562zm10.938-3.906H32.03V18.75a.781.781 0 00-1.447-.41l-6.25 10.157c-.01.016-.01.036-.02.054a.758.758 0 00-.053.146.748.748 0 00-.03.156c0 .02-.012.036-.012.056a.71.71 0 00.017.085.78.78 0 00.174.412c.035.04.074.078.117.11.024.018.038.043.064.059.025.016.036.01.053.02a.79.79 0 00.147.053c.05.016.1.026.152.03.02 0 .037.013.057.013h5.469v1.562a.781.781 0 001.562 0v-1.566h1.563a.781.781 0 100-1.562zm-7.196 0l4.07-6.615v6.615h-4.07zM3.985 17.307a.782.782 0 01-.725-1.073A23.377 23.377 0 0115.278 3.672a.782.782 0 11.648 1.422 21.817 21.817 0 00-11.22 11.724.78.78 0 01-.721.489zM16.406 46.75a.781.781 0 01-.296-.058A23.366 23.366 0 011.563 25a.781.781 0 111.562 0 21.81 21.81 0 0013.577 20.247.782.782 0 01-.296 1.504zm16.381.314a.781.781 0 01-.27-1.515 21.942 21.942 0 0013.517-14.513.781.781 0 111.502.43 23.516 23.516 0 01-14.48 15.551.794.794 0 01-.27.047z" fill="#00AFAA"/></svg>