<svg width="50" height="50" fill="none" xmlns="http://www.w3.org/2000/svg"><g clip-path="url(#clip0)" fill="#FC6D2B"><path d="M25.27 17.725H6.523a.732.732 0 000 1.465h18.749a.732.732 0 000-1.465zm0 5.146H6.523a.732.732 0 100 1.465h18.749a.732.732 0 000-1.465zm0 5.146H6.523a.732.732 0 000 1.465h18.749a.732.732 0 100-1.465zm.733 5.879a.732.732 0 00-.732-.733H6.522a.732.732 0 100 1.465h18.749a.732.732 0 00.732-.732zM6.522 40.705a.732.732 0 100 1.465h9.399a.732.732 0 100-1.465H6.522zM33.71 9.068V6.69c0-.905-.736-1.642-1.641-1.642H17.033c-.905 0-1.642.737-1.642 1.642v2.377c0 .905.737 1.641 1.642 1.641h1.27a.732.732 0 100-1.464h-1.27a.177.177 0 01-.177-.177V6.69c0-.097.08-.177.177-.177h15.036c.097 0 .177.08.177.177v2.377c0 .097-.08.177-.177.177H21.726a.732.732 0 100 1.464H32.07c.905 0 1.641-.736 1.641-1.641z"/><path d="M39.186 44.658a.732.732 0 00-.732.732v.986c0 1.19-.968 2.16-2.159 2.16H3.896a2.161 2.161 0 01-2.158-2.16V11.175c0-.159.018-.314.051-.466h6.669a2.528 2.528 0 002.524-2.524V1.516c.152-.033.307-.051.466-.051h24.847c1.19 0 2.159.968 2.159 2.159v9.75a.732.732 0 101.465 0v-9.75A3.628 3.628 0 0036.295 0H11.448a3.6 3.6 0 00-2.563 1.061l-7.55 7.551a3.6 3.6 0 00-1.062 2.563v35.201A3.628 3.628 0 003.896 50h32.4a3.628 3.628 0 003.623-3.623v-.987a.732.732 0 00-.733-.732zM9.518 2.5v5.685c0 .584-.476 1.06-1.06 1.06H2.773L9.518 2.5z"/><path d="M49.217 26.172a2.91 2.91 0 00.365-2.554 2.909 2.909 0 00-1.796-1.851 1.455 1.455 0 01-.969-1.334 2.909 2.909 0 00-1.206-2.28 2.909 2.909 0 00-2.541-.442 1.455 1.455 0 01-1.568-.51 2.908 2.908 0 00-2.316-1.136 2.91 2.91 0 00-2.316 1.136c-.37.48-.985.68-1.567.51a2.909 2.909 0 00-2.541.442 2.909 2.909 0 00-1.206 2.28 1.455 1.455 0 01-.969 1.334 2.908 2.908 0 00-1.796 1.851c-.282.868-.15 1.8.365 2.554.34.5.34 1.147 0 1.648a2.909 2.909 0 00-.365 2.554 2.909 2.909 0 001.796 1.851c.57.205.95.728.969 1.333a2.928 2.928 0 002.528 2.813v6.668a1.556 1.556 0 002.37 1.323l2.686-1.653c.044-.027.07-.015.094 0l2.685 1.653a1.556 1.556 0 002.37-1.323V36.37a2.928 2.928 0 002.529-2.813 1.455 1.455 0 01.968-1.333 2.908 2.908 0 001.796-1.852 2.91 2.91 0 00-.364-2.553 1.454 1.454 0 010-1.648zm-6.53 16.943l-2.686-1.653a1.554 1.554 0 00-1.63 0l-2.685 1.653a.09.09 0 01-.137-.076v-6.807a1.453 1.453 0 011.322.558 2.909 2.909 0 002.316 1.136c.913 0 1.757-.414 2.315-1.136a1.453 1.453 0 011.322-.558v6.807a.09.09 0 01-.137.076zm5.32-14.47c.257.377.323.842.182 1.276a1.454 1.454 0 01-.898.925 2.912 2.912 0 00-1.938 2.668c-.013.426-.2.81-.527 1.081-.367.305-.865.42-1.346.28a2.912 2.912 0 00-3.136 1.019c-.28.36-.701.568-1.158.568-.456 0-.878-.207-1.157-.568a2.91 2.91 0 00-3.136-1.019 1.458 1.458 0 01-1.346-.28 1.443 1.443 0 01-.527-1.08 2.912 2.912 0 00-1.939-2.669 1.454 1.454 0 01-.897-.925c-.141-.434-.075-.9.182-1.276a2.912 2.912 0 000-3.298 1.454 1.454 0 01-.182-1.276c.14-.434.468-.772.897-.926a2.912 2.912 0 001.939-2.668c.014-.456.233-.871.602-1.14a1.454 1.454 0 011.27-.22 2.912 2.912 0 003.137-1.02c.28-.36.701-.567 1.157-.567.457 0 .879.207 1.158.568a2.912 2.912 0 003.136 1.019 1.453 1.453 0 011.27.22c.37.269.59.684.603 1.14a2.912 2.912 0 001.938 2.668c.43.154.757.492.898.926.141.433.075.899-.182 1.276a2.912 2.912 0 000 3.298z"/><path d="M39.186 20.858a6.145 6.145 0 00-6.138 6.138 6.145 6.145 0 006.138 6.138 6.145 6.145 0 006.138-6.138 6.145 6.145 0 00-6.138-6.138zm0 10.811a4.679 4.679 0 01-4.673-4.673 4.679 4.679 0 014.673-4.674 4.679 4.679 0 014.674 4.674 4.679 4.679 0 01-4.674 4.673z"/></g><defs><clipPath id="clip0"><path fill="#fff" d="M0 0h50v50H0z"/></clipPath></defs></svg>