<svg width="50" height="50" fill="none" xmlns="http://www.w3.org/2000/svg"><g clip-path="url(#clip0)" fill="#F51E4A"><path d="M48.535 40.747V8.521h-5.86V4.126a2.2 2.2 0 00-2.196-2.197H24.365a2.2 2.2 0 00-2.197 2.197V8.52H1.465v5.859H2.93V9.985h19.238v16.703l6.802-4.252h6.382v-1.464H28.55l-4.917 3.073V4.125c0-.403.328-.731.732-.731h16.113c.404 0 .733.328.733.732v16.113a.733.733 0 01-.733.733h-3.662v1.464h3.662a2.2 2.2 0 002.198-2.197V9.985h4.394v27.833H22.388v-7.12l-6.129-2.043 1.734-2.312v-6.104a2.2 2.2 0 00-1.465-2.071v-.858a2.2 2.2 0 00-2.197-2.198h-1.465a2.2 2.2 0 00-2.197 2.198v.858a2.201 2.201 0 00-1.465 2.071v6.104l1.734 2.312-6.128 2.043v7.12H2.93V15.845H1.465v24.902H0v5.127a2.2 2.2 0 002.197 2.197h39.014v-1.465H2.197a.733.733 0 01-.732-.732v-3.662H19.3l.733 2.93h9.932l.733-2.93h17.836v3.662a.733.733 0 01-.732.732h-5.127v1.465h5.127A2.2 2.2 0 0050 45.874v-5.127h-1.465zm-33.59-10.986l1.876.625-3.222 2.48-3.223-2.48 1.877-.625h2.691zM12.133 17.31c0-.404.328-.733.732-.733h1.465c.404 0 .732.329.732.733v.732h-2.93v-.732zm-.733 2.197h4.395c.404 0 .732.328.732.732v.733h-3.234l-2.625 1.618v-2.35c0-.405.329-.733.732-.733zm-.732 4.803l3.04-1.873h2.82v3.418l-1.832 2.44H12.5l-1.831-2.44V24.31zm-4.395 7.444l2.426-.809 4.899 3.768 4.898-3.768 2.426.808v6.065h-2.198v-2.712H17.26v2.712H9.937v-2.712H8.471v2.712H6.274v-6.064zm22.549 11.923h-7.646l-.366-1.465h3.457v-1.465H2.93v-1.465h44.14v1.465H25.732v1.465h3.457l-.366 1.465z"/><path d="M29.492 7.056h7.324V8.52h-7.324V7.056zm-1.464 2.929h5.859v1.465h-5.86V9.985zm7.324 0h1.465v1.465h-1.465V9.985zm-7.324 2.93h8.789v1.465h-8.79v-1.465zm2.929 2.93h5.86v1.464h-5.86v-1.465zm-2.929 0h1.464v1.464h-1.464v-1.465zm10.62 16.215v-1.894l1.339-1.34-1.036-1.035-1.036 1.036-1.036-1.036-1.036 1.036 1.34 1.339v1.894h1.465zm-6.592-2.608h2.197v1.465h-2.197v-1.465zm-2.626-1.34l-1.037 1.037-1.035-1.036-1.036 1.036 1.036 1.035-1.035 1.035 1.036 1.036 1.034-1.035 1.036 1.036 1.036-1.036-1.036-1.035 1.037-1.037-1.036-1.036zM2.93 43.677h1.465v1.465H2.93v-1.465zM44.14 11.45h1.465v1.465h-1.464V11.45zm-5.858-6.592h1.464v1.465h-1.465V4.858zm5.858 9.522h1.465v4.394h-1.464V14.38z"/></g><defs><clipPath id="clip0"><path fill="#fff" d="M0 0h50v50H0z"/></clipPath></defs></svg>