<svg width="28" height="42" fill="none" xmlns="http://www.w3.org/2000/svg"><path d="M23.852 4.161A13.87 13.87 0 0013.911.106 13.977 13.977 0 003.434 4.97a.977.977 0 001.479 1.276 12.024 12.024 0 019.099-4.188 11.93 11.93 0 018.464 3.489 11.931 11.931 0 013.55 8.525c0 3.08-1.165 6.01-3.279 8.247-2.22 2.35-3.522 5.324-3.718 8.45h-1.904V20.42h.619a2.574 2.574 0 002.571-2.572v-.13a2.574 2.574 0 00-2.571-2.572 2.574 2.574 0 00-2.572 2.572v.748h-2.344v-.748a2.574 2.574 0 00-2.571-2.572h-.165a2.574 2.574 0 00-2.572 2.572v.13a2.574 2.574 0 002.572 2.571h.784V30.77H8.995c-.19-3.162-1.467-6.108-3.644-8.371a11.935 11.935 0 01-3.349-8.662.977.977 0 10-1.952-.053 13.873 13.873 0 003.894 10.069c2.013 2.093 3.122 4.878 3.122 7.841v2.826a4.07 4.07 0 003.614 4.039v.22A3.325 3.325 0 0014 42c1.83 0 3.32-1.49 3.32-3.32v-.218a4.07 4.07 0 003.636-4.042v-2.825c0-2.925 1.14-5.743 3.21-7.934a13.91 13.91 0 003.812-9.589c0-3.75-1.465-7.269-4.126-9.911zm-6.727 13.556a.62.62 0 011.237 0v.13a.62.62 0 01-.618.618h-.619v-.748zm-4.297 2.701h2.344V30.77h-2.344V20.418zm-2.737-1.953a.62.62 0 01-.618-.618v-.13a.62.62 0 01.618-.619h.166a.62.62 0 01.618.619v.748h-.784zm5.276 20.215c0 .754-.613 1.367-1.367 1.367a1.369 1.369 0 01-1.367-1.367v-.196h2.734v.196zm3.636-4.26a2.113 2.113 0 01-2.11 2.111H11.13a2.113 2.113 0 01-2.11-2.11v-1.698h9.983v1.697z" fill="#A54181"/></svg>