<svg width="70" height="70" fill="none" xmlns="http://www.w3.org/2000/svg"><path d="M35.773 14.54a6.332 6.332 0 01-1.867-4.51v-.186H31.72v.187c0 2.287.89 4.437 2.508 6.055l1.546-1.547z" fill="url(#paint0_linear)"/><path d="M42.364 31.203a47.363 47.363 0 006.303-2.91l.58-.33-.6-13.803a13.779 13.779 0 00-.413-2.796 4.366 4.366 0 002.078-3.708v-.32c0-.675-.16-1.351-.461-1.956l-1.352-2.704a2.848 2.848 0 00-2.562-1.582 2.848 2.848 0 00-2.561 1.582l-.471.944A13.646 13.646 0 0035 1.094 13.632 13.632 0 0021.353 14.16l-.6 13.803.58.33a47.363 47.363 0 006.303 2.91A14.233 14.233 0 0017.5 44.892v1.044a6.57 6.57 0 006.563 6.563h.565a14.119 14.119 0 00-3.632 7.37l-1.506 9.036h31.02l-1.507-9.036a14.118 14.118 0 00-3.632-7.37h.566a6.57 6.57 0 006.563-6.563v-1.044a14.233 14.233 0 00-10.136-13.69zm-10.058-1.697c.167.012.336.025.507.025h4.374c.171 0 .34-.013.507-.025l.538 2.151A3.45 3.45 0 0135 33.907a3.449 3.449 0 01-3.232-2.25l.538-2.15zm7.692.196l-.18-.724a6.575 6.575 0 003.834-4.916h.098c1.202 0 2.29-.487 3.082-1.274l.17 3.922c-1.178.627-4 2.045-7.004 2.992zm3.57-12.202h.182a2.19 2.19 0 012.188 2.188 2.19 2.19 0 01-2.188 2.187v-2.991a5.41 5.41 0 00-.182-1.384zm2.37-14.219c.258 0 .488.144.604.374l1.352 2.705c.151.3.231.639.231.977v.32a2.19 2.19 0 01-2.188 2.187 2.19 2.19 0 01-2.187-2.188v-.32c0-.337.08-.675.23-.977l1.353-2.705a.674.674 0 01.605-.373zM35 3.281c2.516 0 4.947.831 6.935 2.344a4.392 4.392 0 00-.373 1.712v.32a4.38 4.38 0 004.376 4.374c.06 0 .116-.015.177-.017.18.734.314 1.48.346 2.242l.091 2.101a4.33 4.33 0 00-2.802-1.044h-1.345a5.418 5.418 0 00-1.31-1.118l-.532-.32a4.727 4.727 0 01-2.282-4.031h-2.187a6.924 6.924 0 003.344 5.907l.532.32a3.295 3.295 0 011.593 2.813v4.085a4.38 4.38 0 01-4.376 4.375h-4.374a4.38 4.38 0 01-4.376-4.375v-5.823c0-1.466.729-2.827 1.948-3.64l.846-.565-1.213-1.82-.846.565a6.55 6.55 0 00-2.652 3.627h-.27c-1.072 0-2.04.402-2.802 1.043l.09-2.101A11.45 11.45 0 0135 3.28zm-8.75 18.594a2.19 2.19 0 01-2.188-2.188A2.19 2.19 0 0126.25 17.5v4.375zm-3.082.913a4.362 4.362 0 003.082 1.274h.098a6.575 6.575 0 003.834 4.916l-.18.724c-3.004-.946-5.826-2.365-7.005-2.992l.17-3.922zm6.766 10.13a5.63 5.63 0 0010.132 0 12.052 12.052 0 019.787 8.645h-3.141a10.622 10.622 0 00-3.07-3.339l.101-.915-2.173-.242-.744 6.696c-.066-.003-.13-.013-.198-.013h-.16a4.38 4.38 0 00-4.374 4.375h-2.188a4.38 4.38 0 00-4.375-4.375h-.16c-.066 0-.13.01-.196.013l-.744-6.696-2.173.242.101.913a10.69 10.69 0 00-3.068 3.342h-3.144a12.05 12.05 0 019.787-8.647zm13.42 7.889a8.073 8.073 0 012.27 3.779c.118.432-.066.758-.185.914a1.102 1.102 0 01-.882.438h-.14a4.349 4.349 0 00-1.464-1.515l.401-3.616zm-16.708-.001l.401 3.616a4.349 4.349 0 00-1.464 1.514h-.14c-.348 0-.67-.16-.884-.438a1.03 1.03 0 01-.185-.907 8.076 8.076 0 012.272-3.785zm-6.959 5.132v-1.045c0-.386.02-.767.054-1.143h2.612c-.029.093-.066.175-.092.271a3.21 3.21 0 00.56 2.808 3.278 3.278 0 002.62 1.296h1.485l.489-.979a2.178 2.178 0 011.957-1.209h.16a2.19 2.19 0 012.187 2.188 2.19 2.19 0 01-2.188 2.188h-5.468a4.38 4.38 0 01-4.375-4.376zm27.16 14.291l1.08 6.49H22.073l1.08-6.49a11.953 11.953 0 014.771-7.729h1.607c1.612 0 3.008-.886 3.767-2.188h3.405c.759 1.302 2.155 2.188 3.767 2.188h1.608a11.957 11.957 0 014.768 7.73zm3.465-14.291a4.38 4.38 0 01-4.374 4.374h-5.47a2.19 2.19 0 01-2.187-2.187 2.19 2.19 0 012.188-2.188h.16c.833 0 1.583.464 1.956 1.21l.49.978h1.482c1.035 0 1.99-.472 2.62-1.297a3.217 3.217 0 00.56-2.817c-.025-.093-.063-.171-.089-.262h2.61c.036.377.054.759.054 1.144v1.044z" fill="url(#paint1_linear)"/><path d="M67.598 41.563L60.78 37.02l4.504-4.502-10.108-5.054-.977 1.957 7.392 3.697-4.246 4.243 6.307 4.202-6.307 4.202 4.246 4.243-7.394 3.702.98 1.955 10.107-5.058-4.504-4.503 6.818-4.541z" fill="url(#paint2_linear)"/><path d="M12.655 45.765l-6.307-4.203 6.307-4.2-4.246-4.244L15.8 29.42l-.977-1.957-10.108 5.054L9.22 37.02l-6.818 4.542 6.818 4.542-4.504 4.503 10.106 5.058.98-1.955-7.393-3.702 4.246-4.243z" fill="url(#paint3_linear)"/><path d="M37.302 25.645l1.957-.979a5.023 5.023 0 00-4.517-2.791h-3.023v2.188h3.023c1.091 0 2.073.607 2.56 1.582z" fill="url(#paint4_linear)"/><defs><linearGradient id="paint0_linear" x1="33.746" y1="9.844" x2="33.746" y2="16.086" gradientUnits="userSpaceOnUse"><stop stop-color="#FC6D2B"/><stop offset="1" stop-color="#F51E4A"/></linearGradient><linearGradient id="paint1_linear" x1="35" y1="1.094" x2="35" y2="68.906" gradientUnits="userSpaceOnUse"><stop stop-color="#FC6D2B"/><stop offset="1" stop-color="#F51E4A"/></linearGradient><linearGradient id="paint2_linear" x1="60.898" y1="27.464" x2="60.898" y2="55.665" gradientUnits="userSpaceOnUse"><stop stop-color="#FC6D2B"/><stop offset="1" stop-color="#F51E4A"/></linearGradient><linearGradient id="paint3_linear" x1="9.102" y1="27.464" x2="9.102" y2="55.665" gradientUnits="userSpaceOnUse"><stop stop-color="#FC6D2B"/><stop offset="1" stop-color="#F51E4A"/></linearGradient><linearGradient id="paint4_linear" x1="35.489" y1="21.875" x2="35.489" y2="25.645" gradientUnits="userSpaceOnUse"><stop stop-color="#FC6D2B"/><stop offset="1" stop-color="#F51E4A"/></linearGradient></defs></svg>