<svg width="26" height="40" fill="none" xmlns="http://www.w3.org/2000/svg"><path d="M9.64 15.17a.587.587 0 00.587-.588v-1.047a.587.587 0 00-1.174 0v1.047c0 .324.263.587.587.587z" fill="url(#paint0_linear)"/><path d="M16.36 15.17a.587.587 0 00.588-.588v-1.047a.587.587 0 00-1.175 0v1.047c0 .324.263.587.587.587z" fill="url(#paint1_linear)"/><path d="M23.667 26.446a.587.587 0 00-.957.68 10.36 10.36 0 011.921 6.034v2.094h-4.44v-2.77a.587.587 0 00-1.174 0v6.342h-7.03a.587.587 0 000 1.174h13.231a.587.587 0 00.587-.587V33.16c0-2.424-.74-4.745-2.138-6.714zm.964 12.38h-4.44v-2.398h4.44v2.398z" fill="url(#paint2_linear)"/><path d="M9.64 38.826H6.983v-6.342a.587.587 0 00-1.175 0v2.77H1.37V33.16c0-2.41.841-4.76 2.368-6.618a10.478 10.478 0 015.203-3.416A4.095 4.095 0 0013 26.73a4.095 4.095 0 004.06-3.603 10.428 10.428 0 014.175 2.332.587.587 0 00.792-.867 11.6 11.6 0 00-4.144-2.437 8.016 8.016 0 002.807-4.143 2.896 2.896 0 003.718-2.773c0-.624-.2-1.202-.538-1.675 1.45-3.598 1.456-7.098.008-9.647-.891-1.569-2.256-2.584-3.744-2.785a6.799 6.799 0 00-3.43.399 3.439 3.439 0 00-.741-.638c-.994-.645-2.375-.943-4.104-.885C10.427.055 9.08.62 7.622 1.784a.587.587 0 00.733.918c1.25-1 2.377-1.482 3.543-1.521 3.238-.107 4.013 1.225 4.066 1.324.117.333.546.465.84.272.012-.007 1.27-.74 3.173-.482 1.122.151 2.171.953 2.88 2.2.589 1.037 1.72 3.844.081 8.227a2.874 2.874 0 00-1.946-.328v-.097c0-.817-.339-1.598-.93-2.143-1.34-1.237-2.859-3.419-3.45-4.3-.33-.52-1.132-.577-1.536-.112-3.045 3.326-7.06 4.406-8.646 4.715a1.763 1.763 0 00-1.422 1.728v.209a2.89 2.89 0 00-1.427.097c-.529-.864-1.717-3.112-1.843-6.046.532.055 1.279.071 1.988-.12C4.753 6.048 5.717 5.13 6.649 4.24a.587.587 0 10-.81-.85c-.826.788-1.68 1.602-2.42 1.802-.976.263-2.131-.002-2.142-.005a.59.59 0 00-.723.563c-.052 3.554 1.35 6.261 2.008 7.33a2.886 2.886 0 00-.97 2.159 2.896 2.896 0 003.718 2.773 8.017 8.017 0 002.806 4.142 11.661 11.661 0 00-5.286 3.643A11.625 11.625 0 00.195 33.16v6.253c0 .325.263.587.587.587H9.64a.587.587 0 000-1.174zm8.48-21.434l1.698-2.357v.797a6.77 6.77 0 01-.52 2.609 14.01 14.01 0 00-1.178-1.05zm3.394-3.872c.948 0 1.72.77 1.72 1.719a1.721 1.721 0 01-2.307 1.615c.043-.335.065-.676.065-1.022V13.6a1.71 1.71 0 01.522-.082zM6.655 11.61c1.67-.327 5.862-1.453 9.12-4.896.69 1.015 2.156 3.07 3.492 4.303.35.323.55.79.55 1.28v.73l-2.65 3.68C16 15.951 14.562 15.328 13 15.328c-1.563 0-3 .623-4.166 1.377l-2.651-3.679v-.842c0-.28.198-.522.472-.576zm.047 6.83a6.78 6.78 0 01-.52-2.608v-.797l1.699 2.356c-.467.37-.865.736-1.18 1.05zm-2.216-1.483a1.72 1.72 0 01-1.719-1.719 1.72 1.72 0 012.241-1.637v2.23c0 .347.023.688.066 1.023a1.715 1.715 0 01-.588.104zm2.79 2.575a12.442 12.442 0 011.94-1.673c1.303-.9 2.577-1.356 3.784-1.356 2.546 0 4.78 2.03 5.724 3.029A6.817 6.817 0 0113 22.649a6.818 6.818 0 01-5.723-3.117zM13 23.824c1 0 1.957-.185 2.84-.522A2.92 2.92 0 0113 25.555a2.92 2.92 0 01-2.839-2.253c.883.337 1.84.522 2.84.522zM5.81 38.826H1.37v-2.398h4.44v2.398z" fill="url(#paint3_linear)"/><defs><linearGradient id="paint0_linear" x1="9.64" y1="12.947" x2="9.64" y2="15.169" gradientUnits="userSpaceOnUse"><stop stop-color="#FC6D2B"/><stop offset="1" stop-color="#F51E4A"/></linearGradient><linearGradient id="paint1_linear" x1="16.36" y1="12.947" x2="16.36" y2="15.169" gradientUnits="userSpaceOnUse"><stop stop-color="#FC6D2B"/><stop offset="1" stop-color="#F51E4A"/></linearGradient><linearGradient id="paint2_linear" x1="18.603" y1="26.198" x2="18.603" y2="40" gradientUnits="userSpaceOnUse"><stop stop-color="#FC6D2B"/><stop offset="1" stop-color="#F51E4A"/></linearGradient><linearGradient id="paint3_linear" x1="12.578" y1="0" x2="12.578" y2="40" gradientUnits="userSpaceOnUse"><stop stop-color="#FC6D2B"/><stop offset="1" stop-color="#F51E4A"/></linearGradient></defs></svg>