<svg width="70" height="70" fill="none" xmlns="http://www.w3.org/2000/svg"><path d="M30.49 23.673A4.514 4.514 0 0035 28.182a4.514 4.514 0 004.508-4.51A4.514 4.514 0 0035 19.165c-.058 0-.112.014-.17.017l-1.116-3.722-2.16.649 1.117 3.723c-1.3.793-2.18 2.21-2.18 3.842zM35 21.418a2.257 2.257 0 012.254 2.255 2.257 2.257 0 01-2.255 2.254 2.257 2.257 0 01-2.254-2.254 2.257 2.257 0 012.254-2.255z" fill="url(#paint0_linear)"/><path d="M66.563 48.158V34.485l-2.255.787v-11.6a5.643 5.643 0 00-5.636-5.636h-4.567C53.517 7.995 45.185 0 35 0 24.813 0 16.481 7.995 15.893 18.036h-4.567a5.643 5.643 0 00-5.636 5.637v27.154l-2.254-.208v13.536l2.265.21c.06 3.056 2.556 5.526 5.625 5.526h47.346c.475 0 .949-.06 1.408-.177l.677-.254 5.806.54V56.463l-2.255-.209V48.91l2.255-.751zM34.999 2.255c8.944 0 16.268 6.983 16.852 15.781h-2.255C49.016 10.482 42.698 4.51 35 4.51c-7.7 0-14.018 5.973-14.597 13.527h-2.255C18.733 9.238 26.056 2.255 35 2.255zM7.945 23.673a3.386 3.386 0 013.381-3.382h13.528v-2.255h-2.197a12.347 12.347 0 012.819-6.802l1.552 1.553 1.594-1.594L27.07 9.64a12.339 12.339 0 016.802-2.819v2.197h2.254V6.821a12.34 12.34 0 016.802 2.82l-1.552 1.553 1.594 1.594 1.552-1.553a12.335 12.335 0 012.82 6.802h-2.197v2.255h13.527a3.386 3.386 0 013.382 3.382V36.06l-2.255.787v-1.902h-2.255v2.687l-40.77 14.221-4.32-.4V24.8h8.454a2.821 2.821 0 012.818 2.818 5.079 5.079 0 005.073 5.073h12.4a5.079 5.079 0 005.073-5.073A2.821 2.821 0 0149.09 24.8h8.454v7.89H59.8V22.546H49.09a5.079 5.079 0 00-5.072 5.073 2.821 2.821 0 01-2.818 2.818H28.8a2.821 2.821 0 01-2.818-2.818 5.079 5.079 0 00-5.073-5.073H10.2v28.7l-2.254-.209V23.673zm3.381 43.963c-1.755 0-3.184-1.348-3.349-3.06l33.059 3.06h-29.71zm52.982-.11L5.69 62.1v-9.01l5.636.523v3.879h2.255v-3.67l3.382.314v2.228h2.254v-2.02l3.382.314v3.961h2.255v-3.753l3.381.314v2.312h2.255v-2.104l3.382.314v4.044h2.254V55.91l3.382.313v2.396h2.255v-2.187l3.382.314v4.128h2.254v-3.92l3.382.313v2.48h2.254v-2.271l3.382.313V62h2.255v-4.003l5.636.522v9.008zM47.063 54.659l10.481-3.495v4.464l-10.48-.97zM59.8 55.837v-5.424l2.255-.752v6.384l-2.255-.208zM41.483 54.14l-19.299-1.786 11.688-4.078v2.451h2.254v-3.236l3.382-1.18v1.034h2.255v-1.82l3.382-1.18v3h2.254v-3.787l3.382-1.18v1.586h2.254v-2.255H52.7l3.718-1.296v3.55h2.255v-4.337l5.636-1.966v8.873L41.483 54.14z" fill="url(#paint1_linear)"/><defs><linearGradient id="paint0_linear" x1="34.999" y1="15.46" x2="34.999" y2="28.182" gradientUnits="userSpaceOnUse"><stop stop-color="#FC6D2B"/><stop offset="1" stop-color="#F51E4A"/></linearGradient><linearGradient id="paint1_linear" x1="34.999" y1="0" x2="34.999" y2="70" gradientUnits="userSpaceOnUse"><stop stop-color="#FC6D2B"/><stop offset="1" stop-color="#F51E4A"/></linearGradient></defs></svg>