<svg width="40" height="40" fill="none" xmlns="http://www.w3.org/2000/svg"><path d="M26.666 3.333H13.333v1.334h13.333V3.333z" fill="url(#paint0_linear)"/><path d="M33 25a2.336 2.336 0 00-2.333-2.333h-1.333v-9.334H28v9.334h-1.666A2.336 2.336 0 0024 25c0 .653.272 1.243.706 1.667A2.324 2.324 0 0024 28.333c0 .45.134.866.355 1.223A2.331 2.331 0 0023 31.666c0 .36.089.696.234 1H18a5.997 5.997 0 00-2.58-4.926A4.007 4.007 0 0018 24a.666.666 0 00-.666-.667H12v-6.666h-1.333v6.666c-1.103 0-2 .897-2 2V40H10V25.333c0-.367.3-.666.667-.666h5.915a2.67 2.67 0 01-2.582 2h-2A.666.666 0 1012 28a4.672 4.672 0 014.667 4.667v.666c0 .368.298.667.667.667h3.9c-.145.304-.234.64-.234 1a2.336 2.336 0 002.334 2.333V40h1.333v-2.667h3A2.336 2.336 0 0030 35c0-.363-.09-.703-.239-1.01a2.331 2.331 0 002.24-2.323c0-.45-.134-.866-.356-1.223A2.331 2.331 0 0033 28.334c0-.654-.271-1.243-.705-1.667A2.324 2.324 0 0033 25zm-5.333 11h-4.333a1.001 1.001 0 010-2h4.333a1.001 1.001 0 010 2zm2-3.333h-4.333a1.001 1.001 0 010-2h4.333a1.001 1.001 0 010 2zm1-3.334h-4.333a1.001 1.001 0 010-2h4.333a1.001 1.001 0 010 2zm0-3.333h-4.333a1.001 1.001 0 010-2h4.333a1.001 1.001 0 010 2z" fill="url(#paint1_linear)"/><path d="M9.998 8.486a.666.666 0 00-.261-.484l-.694-.526A1.827 1.827 0 007.257 6a1.83 1.83 0 00-1.82 1.809 3.87 3.87 0 01-1.498-.605l-.232-.156a.666.666 0 00-1.04.552v.547c0 .803.242 1.57.691 2.213l-.498.505A.666.666 0 003.334 12h3.23a2.524 2.524 0 002.497-2.242l.747-.756a.667.667 0 00.19-.516zm-2.061.512a.666.666 0 00-.193.469c0 .661-.53 1.2-1.18 1.2H4.868a.668.668 0 00-.137-.736 2.55 2.55 0 01-.647-1.139c.636.269 1.32.408 2.02.408a.666.666 0 00.666-.667v-.7c0-.275.219-.5.487-.5s.487.225.487.5c0 .209.098.406.264.532l.317.24-.388.393z" fill="url(#paint2_linear)"/><path d="M22 11.333V10h-2a.667.667 0 00-.667.667v2H18V14h1.333v2.667h1.334V14H22v-1.333h-1.333v-1.334H22z" fill="url(#paint3_linear)"/><path d="M24 7.333h-8c-1.103 0-2 .897-2 2v8c0 1.103.897 2 2 2h8c1.103 0 2-.897 2-2v-8c0-1.103-.897-2-2-2zm.667 10A.667.667 0 0124 18h-8a.667.667 0 01-.667-.667v-8c0-.367.3-.666.667-.666h8c.368 0 .667.299.667.666v8z" fill="url(#paint4_linear)"/><path d="M10 3.333H2c-1.103 0-2 .897-2 2v8c0 1.103.897 2 2 2h8c1.103 0 2-.897 2-2v-8c0-1.103-.897-2-2-2zm.667 10A.667.667 0 0110 14H2a.667.667 0 01-.667-.667v-8c0-.367.3-.666.667-.666h8c.368 0 .667.299.667.666v8z" fill="url(#paint5_linear)"/><path d="M38 0h-8c-1.103 0-2 .897-2 2v8c0 1.103.897 2 2 2h8c1.103 0 2-.897 2-2V2c0-1.103-.897-2-2-2zm.667 10a.667.667 0 01-.667.667h-8a.667.667 0 01-.667-.667V6.667h1.401A3.339 3.339 0 0034 9.333a3.339 3.339 0 003.266-2.666h1.4V10zM32 6c0-1.103.897-2 2-2s2 .897 2 2-.897 2-2 2-2-.897-2-2zm6.667-.667h-1.401A3.339 3.339 0 0034 2.667a3.339 3.339 0 00-3.266 2.666h-1.4V2c0-.367.298-.667.666-.667h8c.368 0 .667.3.667.667v3.333z" fill="url(#paint6_linear)"/><path d="M20.666 27.333h-1.333v1.334h1.333v-1.334z" fill="url(#paint7_linear)"/><defs><linearGradient id="paint0_linear" x1="20" y1="3.333" x2="20" y2="4.667" gradientUnits="userSpaceOnUse"><stop stop-color="#FC6D2B"/><stop offset="1" stop-color="#F51E4A"/></linearGradient><linearGradient id="paint1_linear" x1="20.834" y1="13.333" x2="20.834" y2="40" gradientUnits="userSpaceOnUse"><stop stop-color="#FC6D2B"/><stop offset="1" stop-color="#F51E4A"/></linearGradient><linearGradient id="paint2_linear" x1="6.334" y1="6" x2="6.334" y2="12" gradientUnits="userSpaceOnUse"><stop stop-color="#FC6D2B"/><stop offset="1" stop-color="#F51E4A"/></linearGradient><linearGradient id="paint3_linear" x1="20" y1="10" x2="20" y2="16.667" gradientUnits="userSpaceOnUse"><stop stop-color="#FC6D2B"/><stop offset="1" stop-color="#F51E4A"/></linearGradient><linearGradient id="paint4_linear" x1="20" y1="7.333" x2="20" y2="19.333" gradientUnits="userSpaceOnUse"><stop stop-color="#FC6D2B"/><stop offset="1" stop-color="#F51E4A"/></linearGradient><linearGradient id="paint5_linear" x1="6" y1="3.333" x2="6" y2="15.333" gradientUnits="userSpaceOnUse"><stop stop-color="#FC6D2B"/><stop offset="1" stop-color="#F51E4A"/></linearGradient><linearGradient id="paint6_linear" x1="34" y1="0" x2="34" y2="12" gradientUnits="userSpaceOnUse"><stop stop-color="#FC6D2B"/><stop offset="1" stop-color="#F51E4A"/></linearGradient><linearGradient id="paint7_linear" x1="20" y1="27.333" x2="20" y2="28.667" gradientUnits="userSpaceOnUse"><stop stop-color="#FC6D2B"/><stop offset="1" stop-color="#F51E4A"/></linearGradient></defs></svg>