<svg width="60" height="60" fill="none" xmlns="http://www.w3.org/2000/svg"><path d="M33 19.5a1 1 0 000-2c-7.076 0-11.523-2.223-12.786-3.716a1 1 0 00-1.527 1.291C20.49 17.206 25.737 19.5 33 19.5z" fill="url(#paint0_linear)"/><path d="M28.001 35.5a1 1 0 000-2c-9.33 0-16.772-3.722-17.87-7.198a1 1 0 00-1.907.602C9.56 31.129 17.321 35.5 28.001 35.5z" fill="url(#paint1_linear)"/><path d="M30 50.5c-13.885 0-22.25-4.93-23.755-8.429a1 1 0 10-1.837.79C6.418 47.534 16.07 52.5 30 52.5a1 1 0 000-2z" fill="url(#paint2_linear)"/><path d="M50.878 29.818C51.607 28.463 52 27.013 52 25.5c0-2.35-.98-4.635-2.846-6.664C50.963 17.3 52 15.476 52 13.5c0-5.607-8.346-10-19-10s-19 4.393-19 10c0 .197.011.393.032.588C7.733 16.698 4 20.92 4 25.5c0 2.154.795 4.18 2.225 5.986C2.201 34.176 0 37.522 0 41c0 8.691 13.178 15.5 30 15.5S60 49.691 60 41c0-4.257-3.309-8.29-9.122-11.182zM33 5.5c9.215 0 17 3.664 17 8s-7.785 8-17 8-17-3.664-17-8 7.785-8 17-8zM14.587 16.024C16.66 20.37 24.008 23.5 33 23.5c5.882 0 11.06-1.34 14.518-3.482C49.143 21.718 50 23.6 50 25.5c0 6.617-9.869 12-22 12s-22-5.383-22-12c0-3.692 3.19-7.188 8.587-9.476zM30 54.5C14.822 54.5 2 48.318 2 41c0-2.858 1.981-5.687 5.6-8.025C11.798 36.922 19.287 39.5 28 39.5c9.756 0 17.978-3.232 21.764-8C55.009 34.047 58 37.48 58 41c0 7.318-12.822 13.5-28 13.5z" fill="url(#paint3_linear)"/><defs><linearGradient id="paint0_linear" x1="26.226" y1="13.43" x2="26.226" y2="19.5" gradientUnits="userSpaceOnUse"><stop stop-color="#FC6D2B"/><stop offset="1" stop-color="#F51E4A"/></linearGradient><linearGradient id="paint1_linear" x1="18.59" y1="25.602" x2="18.59" y2="35.5" gradientUnits="userSpaceOnUse"><stop stop-color="#FC6D2B"/><stop offset="1" stop-color="#F51E4A"/></linearGradient><linearGradient id="paint2_linear" x1="17.663" y1="41.466" x2="17.663" y2="52.5" gradientUnits="userSpaceOnUse"><stop stop-color="#FC6D2B"/><stop offset="1" stop-color="#F51E4A"/></linearGradient><linearGradient id="paint3_linear" x1="30" y1="3.5" x2="30" y2="56.5" gradientUnits="userSpaceOnUse"><stop stop-color="#FC6D2B"/><stop offset="1" stop-color="#F51E4A"/></linearGradient></defs></svg>