<svg width="20" height="20" fill="none" xmlns="http://www.w3.org/2000/svg"><path d="M18.933 4.563h-2.774c.453-.491.73-1.146.73-1.865 0 0 0-.11-.002-.142A2.51 2.51 0 0015.593.44a2.567 2.567 0 00-2.538 0l-1.262.713A4.402 4.402 0 0010 3.06a4.402 4.402 0 00-1.793-1.908L6.945.44a2.568 2.568 0 00-2.538 0 2.51 2.51 0 00-1.294 2.116l-.002.142c0 .719.277 1.374.73 1.865H1.067C.479 4.563 0 5.042 0 5.63v2.533A1.07 1.07 0 001.067 9.23h.489v9.6c0 .588.478 1.067 1.067 1.067h14.754a1.07 1.07 0 001.068-1.068v-9.6h.488c.588 0 1.067-.478 1.067-1.066V5.63c0-.588-.479-1.067-1.067-1.067zM12.23 1.926l1.262-.712a1.685 1.685 0 011.666 0A1.628 1.628 0 0116 2.698a1.868 1.868 0 01-1.866 1.865H10.47a3.518 3.518 0 011.76-2.637zm-8.229.66a1.63 1.63 0 01.841-1.372 1.687 1.687 0 011.666 0l1.262.712a3.518 3.518 0 011.76 2.637H5.865A1.868 1.868 0 014 2.698l.001-.112zm4 7.996H6.17a.444.444 0 100 .889H8v7.537H2.622a.178.178 0 01-.179-.178v-9.6H8v1.352zM8 8.34H1.066a.178.178 0 01-.178-.178V5.63c0-.098.08-.178.178-.178H8v2.889zm3.11 10.667H8.889V5.452h2.222v13.556zm6.445-.179c0 .099-.08.178-.178.178H12V11.47h1.694a.445.445 0 000-.89H12V9.23h5.556v9.6zM19.11 8.163c0 .098-.08.178-.178.178H12V5.452h6.933c.098 0 .178.08.178.178v2.533z" fill="#F51E4A"/><path d="M15.805 11.47h.044a.444.444 0 000-.888h-.044a.444.444 0 000 .889zm-11.79 0h.044a.444.444 0 100-.888h-.044a.445.445 0 000 .889z" fill="#F51E4A"/></svg>