<svg width="70" height="70" fill="none" xmlns="http://www.w3.org/2000/svg"><path d="M64.941 59.883H50.586a3.49 3.49 0 00-3.486 3.486v.205H5.138a2.407 2.407 0 01-2.404-2.404 2.407 2.407 0 012.404-2.404h10.494a1.367 1.367 0 000-2.734H5.138A5.144 5.144 0 000 61.17a5.144 5.144 0 005.138 5.138H47.1v.206A3.49 3.49 0 0050.586 70H64.94c2.791 0 5.06-2.27 5.06-5.06s-2.27-5.058-5.059-5.058zm-3.691 7.383H50.586a.753.753 0 01-.752-.752v-3.145c0-.415.337-.752.752-.752H61.25v4.649zm3.691 0h-.957v-4.649h.957a2.327 2.327 0 012.325 2.324 2.327 2.327 0 01-2.325 2.325z" fill="url(#paint0_linear)"/><path d="M22.523 56.432a1.377 1.377 0 00-.967-.4 1.369 1.369 0 00-1.366 1.366 1.371 1.371 0 001.366 1.368c.36 0 .711-.145.967-.401.254-.254.4-.607.4-.967s-.146-.712-.4-.966z" fill="url(#paint1_linear)"/><path d="M63.173 22.686a1.377 1.377 0 00-.966-.4c-.36 0-.712.145-.967.4-.254.254-.4.607-.4.966 0 .36.146.713.4.967.255.254.607.4.967.4s.712-.146.966-.4c.255-.254.401-.607.401-.967s-.146-.712-.4-.966z" fill="url(#paint2_linear)"/><path d="M62.207 18.867c.755 0 1.367-.612 1.367-1.367V6.836A6.844 6.844 0 0056.738 0H13.262a6.844 6.844 0 00-6.836 6.836v34.727a6.844 6.844 0 006.836 6.835h14.902v4.047a5.181 5.181 0 00-3.686 4.954v1.663c0 .756.613 1.368 1.368 1.368h18.308c.755 0 1.368-.612 1.368-1.367v-1.664a5.181 5.181 0 00-3.686-4.954v-4.047h14.902a6.844 6.844 0 006.836-6.836v-12.35a1.367 1.367 0 00-2.734 0v12.35a4.106 4.106 0 01-4.102 4.102H13.262a4.106 4.106 0 01-4.102-4.102V6.837a4.106 4.106 0 014.102-4.102h43.476a4.106 4.106 0 014.102 4.102V17.5c0 .755.612 1.367 1.367 1.367zM30.898 48.398h8.204v3.829h-8.204v-3.829zm9.451 6.563a2.44 2.44 0 012.438 2.438v.296H27.213V57.4a2.44 2.44 0 012.438-2.438h10.698z" fill="url(#paint3_linear)"/><path d="M55.371 5.469H14.63a2.738 2.738 0 00-2.734 2.734v31.992a2.738 2.738 0 002.734 2.735h40.74a2.738 2.738 0 002.734-2.735V8.203a2.738 2.738 0 00-2.734-2.734zm0 34.726H14.63V8.203h40.74l.002 31.992h-.002z" fill="url(#paint4_linear)"/><path d="M52.335 27.01L41.786 13.605a1.367 1.367 0 00-1.73-.354c-3.118 1.705-6.993 1.705-10.112 0a1.367 1.367 0 00-1.73.354L17.666 27.01a1.367 1.367 0 00.107 1.813c4.75 4.749 10.989 7.124 17.227 7.124 6.239 0 12.478-2.375 17.227-7.124.49-.49.536-1.268.108-1.813zm-31.75.71l9.095-11.556a13.437 13.437 0 0010.64 0l9.094 11.556c-8.182 7.323-20.646 7.323-28.828 0z" fill="url(#paint5_linear)"/><path d="M23.561 10.938h-4.83a1.367 1.367 0 000 2.734h4.83a1.367 1.367 0 000-2.735z" fill="url(#paint6_linear)"/><path d="M19.697 16.533a1.377 1.377 0 00-.966-.4c-.36 0-.713.146-.967.4a1.371 1.371 0 00.966 2.334c.36 0 .713-.146.967-.4.254-.255.4-.607.4-.967s-.146-.712-.4-.967z" fill="url(#paint7_linear)"/><defs><linearGradient id="paint0_linear" x1="35" y1="56.032" x2="35" y2="70" gradientUnits="userSpaceOnUse"><stop stop-color="#FC6D2B"/><stop offset="1" stop-color="#F51E4A"/></linearGradient><linearGradient id="paint1_linear" x1="21.556" y1="56.031" x2="21.556" y2="58.766" gradientUnits="userSpaceOnUse"><stop stop-color="#FC6D2B"/><stop offset="1" stop-color="#F51E4A"/></linearGradient><linearGradient id="paint2_linear" x1="62.207" y1="22.285" x2="62.207" y2="25.02" gradientUnits="userSpaceOnUse"><stop stop-color="#FC6D2B"/><stop offset="1" stop-color="#F51E4A"/></linearGradient><linearGradient id="paint3_linear" x1="35" y1="0" x2="35" y2="60.43" gradientUnits="userSpaceOnUse"><stop stop-color="#FC6D2B"/><stop offset="1" stop-color="#F51E4A"/></linearGradient><linearGradient id="paint4_linear" x1="35" y1="5.469" x2="35" y2="42.93" gradientUnits="userSpaceOnUse"><stop stop-color="#FC6D2B"/><stop offset="1" stop-color="#F51E4A"/></linearGradient><linearGradient id="paint5_linear" x1="35" y1="13.084" x2="35" y2="35.946" gradientUnits="userSpaceOnUse"><stop stop-color="#FC6D2B"/><stop offset="1" stop-color="#F51E4A"/></linearGradient><linearGradient id="paint6_linear" x1="21.146" y1="10.938" x2="21.146" y2="13.672" gradientUnits="userSpaceOnUse"><stop stop-color="#FC6D2B"/><stop offset="1" stop-color="#F51E4A"/></linearGradient><linearGradient id="paint7_linear" x1="18.73" y1="16.133" x2="18.73" y2="18.867" gradientUnits="userSpaceOnUse"><stop stop-color="#FC6D2B"/><stop offset="1" stop-color="#F51E4A"/></linearGradient></defs></svg>