<svg width="40" height="40" fill="none" xmlns="http://www.w3.org/2000/svg"><path d="M20 0C8.972 0 0 8.972 0 20s8.972 20 20 20 20-8.972 20-20S31.028 0 20 0zm0 38.26C9.93 38.26 1.74 30.07 1.74 20 1.74 9.93 9.93 1.74 20 1.74c10.07 0 18.26 8.19 18.26 18.26 0 10.07-8.19 18.26-18.26 18.26z" fill="url(#paint0_linear)"/><path d="M20 19.13c-6.233 0-11.305 5.072-11.305 11.305a.87.87 0 001.74 0c0-5.275 4.29-9.566 9.565-9.566 5.274 0 9.565 4.29 9.565 9.566a.87.87 0 001.739 0c0-6.233-5.071-11.305-11.304-11.305z" fill="url(#paint1_linear)"/><path d="M20 5.217a6.094 6.094 0 00-6.087 6.087A6.094 6.094 0 0020 17.391a6.094 6.094 0 006.087-6.087A6.094 6.094 0 0020 5.217zm0 10.435a4.354 4.354 0 01-4.348-4.348A4.354 4.354 0 0120 6.956a4.354 4.354 0 014.348 4.348A4.354 4.354 0 0120 15.652z" fill="url(#paint2_linear)"/><defs><linearGradient id="paint0_linear" x1="20" y1="0" x2="20" y2="40" gradientUnits="userSpaceOnUse"><stop stop-color="#FC6D2B"/><stop offset="1" stop-color="#F51E4A"/></linearGradient><linearGradient id="paint1_linear" x1="20" y1="19.13" x2="20" y2="31.304" gradientUnits="userSpaceOnUse"><stop stop-color="#FC6D2B"/><stop offset="1" stop-color="#F51E4A"/></linearGradient><linearGradient id="paint2_linear" x1="20" y1="5.217" x2="20" y2="17.391" gradientUnits="userSpaceOnUse"><stop stop-color="#FC6D2B"/><stop offset="1" stop-color="#F51E4A"/></linearGradient></defs></svg>