<svg width="70" height="70" fill="none" xmlns="http://www.w3.org/2000/svg"><g clip-path="url(#clip0)"><path d="M12.835 16.67h35.762a1.04 1.04 0 001.04-1.039V3.405A3.41 3.41 0 0046.23 0H21.29a1.04 1.04 0 100 2.08h24.941c.731 0 1.326.594 1.326 1.325v11.187H13.874V3.405c0-.73.595-1.326 1.326-1.326h2.624a1.04 1.04 0 100-2.079H15.2a3.41 3.41 0 00-3.405 3.405v12.226c0 .575.465 1.04 1.04 1.04z" fill="url(#paint0_linear)"/><path d="M40.973 67.92H12.886a4.247 4.247 0 01-4.242-4.242v-38.33a4.247 4.247 0 014.242-4.241h35.66a4.247 4.247 0 014.242 4.242v6.223a1.04 1.04 0 002.079 0v-6.223a6.329 6.329 0 00-6.322-6.322h-35.66a6.329 6.329 0 00-6.32 6.322v38.33a6.329 6.329 0 006.32 6.32h28.088a1.04 1.04 0 100-2.078z" fill="url(#paint1_linear)"/><path d="M53.829 33.998a1.04 1.04 0 00-1.04 1.04v21.484a1.04 1.04 0 102.08 0V35.037a1.04 1.04 0 00-1.04-1.04z" fill="url(#paint2_linear)"/><path d="M15.26 10.918c0 .575.465 1.04 1.04 1.04h28.83a1.04 1.04 0 000-2.08H16.3a1.04 1.04 0 00-1.04 1.04z" fill="url(#paint3_linear)"/><path d="M22.537 33.604c5.083 0 9.218 4.135 9.218 9.218a1.04 1.04 0 102.08 0c0-6.23-5.069-11.297-11.298-11.297S11.24 36.593 11.24 42.822c0 5.646 4.215 10.46 9.804 11.199a1.04 1.04 0 00.272-2.061c-4.558-.603-7.996-4.532-7.996-9.138 0-5.083 4.135-9.218 9.217-9.218z" fill="url(#paint4_linear)"/><path d="M31.928 62.847c5.02 0 9.103-4.083 9.103-9.102 0-5.02-4.084-9.102-9.102-9.102-5.02 0-9.103 4.083-9.103 9.102s4.084 9.102 9.102 9.102zm0-16.125a7.03 7.03 0 017.024 7.023 7.031 7.031 0 01-7.023 7.023 7.031 7.031 0 01-7.024-7.023 7.031 7.031 0 017.023-7.023z" fill="url(#paint5_linear)"/><path d="M41.852 49.246c.108 0 .217-.016.325-.052a10.75 10.75 0 007.407-10.235c0-5.94-4.832-10.771-10.772-10.771-3.29 0-6.357 1.475-8.414 4.046a1.04 1.04 0 001.623 1.3 8.656 8.656 0 016.791-3.267c4.793 0 8.693 3.9 8.693 8.692a8.675 8.675 0 01-5.977 8.26 1.04 1.04 0 00.324 2.027z" fill="url(#paint6_linear)"/><path d="M57.814 58.753H47.438a5.63 5.63 0 00-5.623 5.624A5.63 5.63 0 0047.438 70h10.376a5.63 5.63 0 005.623-5.623 5.63 5.63 0 00-5.623-5.624zm-13.92 5.624a3.548 3.548 0 013.544-3.544h4.148v7.088h-4.148a3.548 3.548 0 01-3.544-3.544zm13.92 3.544h-4.149v-7.088h4.149a3.548 3.548 0 013.544 3.544 3.548 3.548 0 01-3.544 3.544z" fill="url(#paint7_linear)"/><path d="M25.27 44.9c0-.759-.35-1.112-1.099-1.112-.91 0-1.05.564-1.07.802-.062.69-.2 1.26-1.256 1.26-.936 0-1.353-.448-1.353-1.451v-4.054c0-1.003.409-1.45 1.325-1.45.842 0 1.238.359 1.284 1.158.008.193.11.82 1.084.82.75 0 1.085-.343 1.085-1.113 0-1.688-1.443-2.867-3.509-2.867-2.153 0-3.439 1.29-3.439 3.452V44.4c0 2.194 1.249 3.453 3.425 3.453 2.075 0 3.523-1.214 3.523-2.952z" fill="url(#paint8_linear)"/><path d="M40.564 33.505h-2.535c-.58 0-1.002.351-1.002.834v9.222c0 .467.43.82 1.002.82h2.827c2.011 0 3.119-1.162 3.119-3.272v-.265c0-1.134-.34-1.886-1.089-2.366.54-.485.838-1.26.838-2.217 0-1.828-1.063-2.756-3.16-2.756zm-1.38 2.003h1.282c.965 0 1.089.53 1.089.99 0 .763-.318 1.089-1.06 1.089h-1.312v-2.08zm2.621 5.49c0 .955-.378 1.38-1.227 1.38h-1.395V39.45h1.395c1.019 0 1.227.53 1.227 1.325v.223z" fill="url(#paint9_linear)"/><path d="M31.787 58.626h2.214c1.986 0 3.124-1.13 3.124-3.1v-3.563c0-1.97-1.139-3.1-3.124-3.1h-2.214c-.504 0-.898.324-.898.737v8.29c0 .413.394.736.898.736zm1.05-7.965H34c.803 0 1.177.414 1.177 1.302v3.563c0 .889-.374 1.302-1.177 1.302h-1.165v-6.167z" fill="url(#paint10_linear)"/></g><defs><linearGradient id="paint0_linear" x1="30.716" y1="0" x2="30.716" y2="16.671" gradientUnits="userSpaceOnUse"><stop stop-color="#FC6D2B"/><stop offset="1" stop-color="#F51E4A"/></linearGradient><linearGradient id="paint1_linear" x1="30.716" y1="19.027" x2="30.716" y2="70" gradientUnits="userSpaceOnUse"><stop stop-color="#FC6D2B"/><stop offset="1" stop-color="#F51E4A"/></linearGradient><linearGradient id="paint2_linear" x1="53.829" y1="33.998" x2="53.829" y2="57.562" gradientUnits="userSpaceOnUse"><stop stop-color="#FC6D2B"/><stop offset="1" stop-color="#F51E4A"/></linearGradient><linearGradient id="paint3_linear" x1="30.715" y1="9.879" x2="30.715" y2="11.958" gradientUnits="userSpaceOnUse"><stop stop-color="#FC6D2B"/><stop offset="1" stop-color="#F51E4A"/></linearGradient><linearGradient id="paint4_linear" x1="22.537" y1="31.525" x2="22.537" y2="54.03" gradientUnits="userSpaceOnUse"><stop stop-color="#FC6D2B"/><stop offset="1" stop-color="#F51E4A"/></linearGradient><linearGradient id="paint5_linear" x1="31.928" y1="44.643" x2="31.928" y2="62.847" gradientUnits="userSpaceOnUse"><stop stop-color="#FC6D2B"/><stop offset="1" stop-color="#F51E4A"/></linearGradient><linearGradient id="paint6_linear" x1="39.877" y1="28.188" x2="39.877" y2="49.246" gradientUnits="userSpaceOnUse"><stop stop-color="#FC6D2B"/><stop offset="1" stop-color="#F51E4A"/></linearGradient><linearGradient id="paint7_linear" x1="52.626" y1="58.753" x2="52.626" y2="70" gradientUnits="userSpaceOnUse"><stop stop-color="#FC6D2B"/><stop offset="1" stop-color="#F51E4A"/></linearGradient><linearGradient id="paint8_linear" x1="21.796" y1="36.893" x2="21.796" y2="47.852" gradientUnits="userSpaceOnUse"><stop stop-color="#FC6D2B"/><stop offset="1" stop-color="#F51E4A"/></linearGradient><linearGradient id="paint9_linear" x1="40.501" y1="33.505" x2="40.501" y2="44.381" gradientUnits="userSpaceOnUse"><stop stop-color="#FC6D2B"/><stop offset="1" stop-color="#F51E4A"/></linearGradient><linearGradient id="paint10_linear" x1="34.007" y1="48.864" x2="34.007" y2="58.626" gradientUnits="userSpaceOnUse"><stop stop-color="#FC6D2B"/><stop offset="1" stop-color="#F51E4A"/></linearGradient><clipPath id="clip0"><path fill="#fff" d="M0 0h70v70H0z"/></clipPath></defs></svg>