<svg width="70" height="70" fill="none" xmlns="http://www.w3.org/2000/svg"><g clip-path="url(#clip0)"><path d="M65.918 15.165h-4.667c-.644 0-1.166.522-1.166 1.166v1.167c0-.644-.523-1.167-1.167-1.167h-3.5a1.167 1.167 0 00-1.167 1.09l-.08 1.244h-2.253V16.33c0-.644-.523-1.166-1.167-1.166h-4.667c-.644 0-1.166.522-1.166 1.166v7c0 .645.522 1.167 1.166 1.167h4.667c.645 0 1.167-.522 1.167-1.166v-2.334h2.1l-.637 9.545a2.323 2.323 0 01-2.327 2.122h-7.303v-.5a1.167 1.167 0 00-.667-1.05 18.779 18.779 0 00-4.978-1.529 1.16 1.16 0 00-.555.056c-.642-.195-1.3-.334-1.967-.415v-3.183a9.728 9.728 0 001.003-.591c3.92-2.743 7.164-5.498 7.164-11.426V12.83a12.881 12.881 0 00-4.06-9.365A12.95 12.95 0 0023.224 2.5a9.323 9.323 0 00-10.974 9.164v17.5c0 .644.522 1.167 1.166 1.167a17.292 17.292 0 0011.978-4.792c.277.183.562.35.856.504v3.183c-.666.079-1.325.216-1.968.41a1.16 1.16 0 00-.554-.055c-1.722.276-3.397.79-4.977 1.528-.406.192-.666.6-.668 1.05v.039a27.673 27.673 0 00-7 17.967c0 3.2.153 6.884 1.1 9.334H9.916v-2.334c0-.644-.522-1.166-1.166-1.166H4.083c-.645 0-1.167.522-1.167 1.166v7c0 .645.522 1.167 1.167 1.167H8.75c.644 0 1.166-.522 1.166-1.167v-2.333h6.67A17.851 17.851 0 0014.583 70h2.333a15.48 15.48 0 011.167-5.85v.016c0 .645.523 1.167 1.167 1.167h4.667c.644 0 1.166-.522 1.166-1.167V59.5h14.608l.672.84A15.518 15.518 0 0143.75 70h2.333a17.86 17.86 0 00-3.9-11.118l-.892-1.115-.449-1.344a14.56 14.56 0 01.293-9.998l.066-.163a3.645 3.645 0 002.549-3.271v-.048l12.646-2.71a4.692 4.692 0 003.688-4.563V23.331c0 .644.522 1.166 1.166 1.166h4.667c.645 0 1.167-.522 1.167-1.166v-7c0-.645-.522-1.167-1.167-1.167zm-16.334 7h-2.333v-4.667h2.333v4.667zM7.583 63H5.249v-4.667h2.334V63zm9.04-3.993l.082.496H14.77c-.667-.927-1.353-3.338-1.353-9.337a25.88 25.88 0 014.667-14.345v7.086c-1.539 3.486-2.05 12.556-1.46 16.1zM30.218 2.353a10.488 10.488 0 0111.107 9.127L34.94 8.287a1.157 1.157 0 00-.725-.105L20.66 10.574a10.356 10.356 0 019.558-8.221zM14.583 27.954v-16.29a7.007 7.007 0 016.354-6.967 12.834 12.834 0 00-2.854 8.134v1.196c0 5.005 2.316 7.746 5.395 10.13a14.963 14.963 0 01-8.895 3.797zm5.834-13.927v-1.04l13.824-2.44 7.17 3.585c-.033 4.345-2.018 6.508-6.16 9.41a7.583 7.583 0 01-8.667 0c-4.178-2.927-6.167-5.095-6.167-9.515zm4.666 17.788a8.887 8.887 0 012.334-.316c.644 0 1.167-.523 1.167-1.167v-3.403a9.076 9.076 0 004.667 0v3.403c0 .644.522 1.167 1.166 1.167a8.887 8.887 0 012.334.316v1.866l-5.834 1.255-5.834-1.255v-1.866zM18.736 56.13c-.071-3.488.23-6.974.9-10.399.304.21.631.385.975.52a14.443 14.443 0 01.144 9.747H19.25c-.18.003-.356.048-.515.132zM22.75 63h-2.333v-4.667h2.333V63zm2.334-5.834c0-.644-.523-1.166-1.167-1.166h-.7a16.775 16.775 0 000-9.334H38.57a16.9 16.9 0 00.06 10.5H25.083zm16.333-14.175c0 .633-.997 1.341-2.333 1.341H22.75c-1.336 0-2.333-.708-2.333-1.341V32.924a16.184 16.184 0 012.333-.762v2.466c0 .55.384 1.025.922 1.14l7 1.507c.162.035.329.035.49 0l7-1.506c.538-.116.922-.591.922-1.141V32.16c.796.195 1.576.45 2.333.762V42.99zm14.49-5.04L43.75 40.557V35h7.303a4.652 4.652 0 004.651-4.273l.805-12.061h1.241V35.67a2.345 2.345 0 01-1.844 2.282zm8.845-15.786h-2.334v-4.667h2.334v4.667z" fill="url(#paint0_linear)"/></g><defs><linearGradient id="paint0_linear" x1="35.001" y1="0" x2="35.001" y2="70" gradientUnits="userSpaceOnUse"><stop stop-color="#FC6D2B"/><stop offset="1" stop-color="#F51E4A"/></linearGradient><clipPath id="clip0"><path fill="#fff" d="M0 0h70v70H0z"/></clipPath></defs></svg>