<svg width="70" height="70" fill="none" xmlns="http://www.w3.org/2000/svg"><path d="M39.31 12.47c-.006-.024-.01-.048-.017-.07l.015.006.001.064z" fill="url(#paint0_linear)"/><path d="M26.25 14.219a1.094 1.094 0 100-2.188 1.094 1.094 0 000 2.188z" fill="url(#paint1_linear)"/><path d="M29.531 14.219a1.094 1.094 0 100-2.188 1.094 1.094 0 000 2.188z" fill="url(#paint2_linear)"/><path d="M66.3 54.333l-8.687-12.635a4.33 4.33 0 001.45-3.257 17.448 17.448 0 00-2.489-8.986l-4.146-6.91-1.055-4.217a1.096 1.096 0 00-.571-.713l-2.188-1.094a1.104 1.104 0 00-.489-.115h-1.094V14.22a1.092 1.092 0 00-.64-.996l-5.932-2.696a8.744 8.744 0 00-14.183-6.435 5.47 5.47 0 00-7.07 3.19 30.383 30.383 0 00-1.907 9.36l-.778 17.888v.005a17.294 17.294 0 00.93 7.905l3.26 8.966H9.638a7.45 7.45 0 00-2.355 14.518 36.76 36.76 0 0011.639 1.888h40.287A8.605 8.605 0 0066.3 54.334zm-19.687-35.74h1.254l1.506.754.972 3.887c.026.105.068.205.123.298l4.23 7.048a15.264 15.264 0 012.177 7.861 2.172 2.172 0 01-.524 1.423l-.693-1.008-3.865-9.661a2.927 2.927 0 00-1.229-1.44l-1.383-5.073a1.092 1.092 0 00-.79-.774l-3.052-.763 1.274-2.551zM35 21.147l1.75-2.334a4.378 4.378 0 003.224.834l3.002 3.003h.002c.14.14.315.238.507.287l3.753.938.98 3.594c-.504.15-.96.432-1.317.818l-3.427-3.856a1.09 1.09 0 00-.603-.346L37.44 23l-.039-.008a1.024 1.024 0 00-.215-.022H35v-1.823zm11.702 15.746l-5.744-2.87a1.1 1.1 0 00-.835-.06l-2.343.781a11.44 11.44 0 01-.385-7.427l.568-1.983 4.119.824 4.06 4.565v.001l.56 6.17zm-8.913.155l2.596-.866 7.189 3.593v.002a6.383 6.383 0 002.93 2.61l3.49 12.214-16.146-8.457a6.639 6.639 0 01-.059-9.096zm14.669 4.215a1.09 1.09 0 00-.706-.737 4.192 4.192 0 01-2.85-3.6l-.598-6.567a.759.759 0 011.459-.351l3.909 9.774c.03.075.068.147.115.213l2.086 3.034-2.547 1.273-.868-3.04zm-8.708-25.95a4.36 4.36 0 00-.1-.932l1.194.543v2.317l-1.393 2.788-1.32-1.32a4.372 4.372 0 001.619-3.395zm-4.442-2.906l.001.064-.016-.071.015.007zm.067 2.906v-.136a8.652 8.652 0 00.778-1.907 2.186 2.186 0 01-1.51 4.105c.475-.582.733-1.31.732-2.061zM31.719 4.376a6.57 6.57 0 016.557 6.301 3.276 3.276 0 00-4.151-.175 4.376 4.376 0 00-3.5-1.751h-5.094a6.573 6.573 0 016.188-4.375zm-6.563 6.563h5.469a2.19 2.19 0 012.188 2.187 1.094 1.094 0 002.187 0 1.094 1.094 0 012.188 0v2.188a1.095 1.095 0 01-1.094 1.093H35v-1.093h-2.188v8.385l-1.093 1.458a5.494 5.494 0 01-4.375 2.188 1.095 1.095 0 01-1.094-1.094v-1.624a4.25 4.25 0 002.078-2.752l.11.001h2.187v-2.188h-2.188a3.285 3.285 0 01-3.28-3.28v-5.47zm0 9.84c.322.243.67.45 1.038.616a2.053 2.053 0 01-1.038 1.337v-1.953zm-5.672-4.04a28.228 28.228 0 011.77-8.688 3.291 3.291 0 013.298-2.125 8.69 8.69 0 00-1.583 5.013v12.03a1.094 1.094 0 00-.841.395l-1.7 2.04a17.276 17.276 0 00-1.406 1.952l.462-10.618zm.023 24.954a15.16 15.16 0 012.602-14.888l1.372-1.648h.581v1.094a3.286 3.286 0 003.282 3.281 7.693 7.693 0 006.125-3.062l.984-1.313h1.284l-.444 1.559c-.871 3.036-.66 6.28.596 9.18a8.84 8.84 0 00-.836 10.161 14.44 14.44 0 01-10.234 4.257H22.64l-3.134-8.62zm26.172 23.933H30.625v-4.633l.807.22a1.096 1.096 0 001.06-.282 3.194 3.194 0 013.692-.6l9.611 4.805a.258.258 0 01-.116.49zm13.529 0H48.11a2.433 2.433 0 00-1.338-2.446l-9.61-4.806a5.381 5.381 0 00-5.724.573l-7.126-1.944a23.713 23.713 0 00-9.222-.655l-4.289.536.27 2.171 4.291-.536a21.525 21.525 0 018.374.595l4.7 1.282v5.23H18.92A34.554 34.554 0 017.973 63.85a5.263 5.263 0 011.664-10.255h12.238a1.095 1.095 0 001.094-1.094h1.85a16.631 16.631 0 0011.585-4.705l.01.01c.078.078.168.144.266.196L59.65 60.03l1.014-1.938L56.67 56l-2.732-9.559 3.187-1.593 7.372 10.723a6.418 6.418 0 01-5.288 10.053z" fill="url(#paint3_linear)"/><defs><linearGradient id="paint0_linear" x1="39.301" y1="12.399" x2="39.301" y2="12.47" gradientUnits="userSpaceOnUse"><stop stop-color="#FC6D2B"/><stop offset="1" stop-color="#F51E4A"/></linearGradient><linearGradient id="paint1_linear" x1="26.25" y1="12.031" x2="26.25" y2="14.219" gradientUnits="userSpaceOnUse"><stop stop-color="#FC6D2B"/><stop offset="1" stop-color="#F51E4A"/></linearGradient><linearGradient id="paint2_linear" x1="29.531" y1="12.031" x2="29.531" y2="14.219" gradientUnits="userSpaceOnUse"><stop stop-color="#FC6D2B"/><stop offset="1" stop-color="#F51E4A"/></linearGradient><linearGradient id="paint3_linear" x1="35" y1="2.188" x2="35" y2="67.813" gradientUnits="userSpaceOnUse"><stop stop-color="#FC6D2B"/><stop offset="1" stop-color="#F51E4A"/></linearGradient></defs></svg>