<svg width="20" height="24" fill="none" xmlns="http://www.w3.org/2000/svg"><path d="M10 18.286A2.292 2.292 0 0012.286 16 2.292 2.292 0 0010 13.714 2.292 2.292 0 007.714 16 2.292 2.292 0 0010 18.286z" fill="#828282"/><path d="M16.857 8h-1.143V5.714A5.716 5.716 0 0010 0a5.716 5.716 0 00-5.714 5.714V8H3.143a2.292 2.292 0 00-2.286 2.286v11.428A2.292 2.292 0 003.143 24h13.714a2.292 2.292 0 002.286-2.286V10.286A2.292 2.292 0 0016.857 8zm-10.4-2.286A3.546 3.546 0 0110 2.171a3.546 3.546 0 013.543 3.543V8H6.457V5.714zm10.4 16H3.143V10.286h13.714v11.428z" fill="#828282"/></svg>